<svg id="Ebene_1" data-name="Ebene 1" xmlns="http://www.w3.org/2000/svg" xmlns:xlink="http://www.w3.org/1999/xlink" viewBox="0 0 699.436 243.672"><defs><style>.cls-1{fill:none;}.cls-2{clip-path:url(#clip-path);}.cls-3{fill:#f9b233;}.cls-4{fill:#343434;}.cls-5{fill:#fff;}</style><clipPath id="clip-path" transform="translate(-68.451 -164.885)"><rect class="cls-1" x="68.451" y="164.885" width="699.435" height="243.672"/></clipPath></defs><g class="cls-2"><path class="cls-3" d="M218.882,344.633c10.888-2.676,22.591-13.609,25.991-24.3,0,0,8.737-27.429,8.737-52.113s-8.737-52.122-8.737-52.122c-3.4-10.686-15.1-21.621-25.991-24.295L111.911,165.52c-10.89-2.676-15.726,3.356-10.746,13.406,0,0,25.442,51.306,25.442,89.3s-25.44,89.289-25.44,89.289c-4.982,10.051-.146,16.083,10.744,13.4Z" transform="translate(-68.451 -164.885)"/><path class="cls-4" d="M118.933,268.223c0-23.722-10.35-53.164-17.752-71.188l-18.922-7.117c-10.5-3.956-16.26,1.543-12.805,12.215,0,0,11.621,35.895,11.621,66.09S69.454,334.3,69.454,334.3C66,344.973,71.763,350.469,82.259,346.52l18.922-7.121c7.4-18.027,17.752-47.473,17.752-71.176" transform="translate(-68.451 -164.885)"/><path class="cls-5" d="M179.078,282.876a30.078,30.078,0,0,0-3.785,3.178,18.785,18.785,0,0,0-2.839,3.521,6.49,6.49,0,0,0-1.1,3.374v.594a24.288,24.288,0,0,0,4.006-2.481,22.193,22.193,0,0,0,3.5-3.273,26.286,26.286,0,0,0,2.62-3.619,10.408,10.408,0,0,0,1.386-3.62,31.2,31.2,0,0,0-3.79,2.326m-26.949,34.473a40.28,40.28,0,0,0-4,5.11,71.651,71.651,0,0,0-3.792,6.348q-1.816,3.422-3.349,6.648c-1.023,2.148-1.893,4.131-2.626,5.95a44.088,44.088,0,0,0-1.528,4.317,1.194,1.194,0,0,0,.584.1h.439a6.976,6.976,0,0,0,4.222-1.685,23.724,23.724,0,0,0,4.224-4.317,45.56,45.56,0,0,0,3.862-5.9,59.38,59.38,0,0,0,3.133-6.5,63.1,63.1,0,0,0,2.114-5.949,16.64,16.64,0,0,0,.8-4.416c0-.2-.026-.63-.07-1.29s-.075-1.092-.075-1.289a10.656,10.656,0,0,0-3.932,2.875M131.365,345.92c.149-.6.317-1.239.511-1.935s.391-1.354.584-1.984a7.076,7.076,0,0,1,.58-1.436q.441-.9,1.457-2.879c.683-1.322,1.456-2.794,2.332-4.414s1.8-3.34,2.769-5.161,1.92-3.536,2.841-5.155,1.725-3.076,2.4-4.366,1.215-2.229,1.6-2.827a3.873,3.873,0,0,1-.8-3.223,6.739,6.739,0,0,1,1.6-3.026,12.649,12.649,0,0,1,3.132-2.479,18.854,18.854,0,0,1,3.79-1.686q3.2-3.872,6.7-8.284t7.284-8.881q3.789-4.463,7.94-8.778a96.826,96.826,0,0,1,8.669-7.986,22.877,22.877,0,0,1,2.112-1.485c1.021-.663,1.624-1.057,1.822-1.192h.874a3.037,3.037,0,0,1,2.332.793,2.584,2.584,0,0,1,.729,1.784,17.984,17.984,0,0,1-2.55,8.88,51.47,51.47,0,0,1-6.267,8.729,86.487,86.487,0,0,1-8.159,8.085q-4.446,3.867-8.082,7.045c.287,0,.921.034,1.891.1s1.6.1,1.894.1a31.568,31.568,0,0,0,3.788-.2,19.659,19.659,0,0,0,3.135-.647,15.118,15.118,0,0,0,3.058-1.288c1.019-.56,2.159-1.242,3.423-2.034a2.516,2.516,0,0,1,.219.992c.047.532.073.862.073.993a4.475,4.475,0,0,1-2.4,3.818,22.542,22.542,0,0,1-5.758,2.532,47.073,47.073,0,0,1-6.992,1.486q-3.646.5-6.119.595-.294,1.092-1.095,3.671t-1.746,5.5q-.95,2.926-1.749,5.5t-1.237,3.57c-.293.926-.753,2.136-1.384,3.621a42.317,42.317,0,0,1-2.4,4.715q-1.457,2.475-3.206,4.959a28.8,28.8,0,0,1-3.936,4.513,19.312,19.312,0,0,1-4.736,3.274,12.034,12.034,0,0,1-5.317,1.239,7.117,7.117,0,0,1-3.934-1.239,3.422,3.422,0,0,1-1.892-2.728,6.366,6.366,0,0,1,.217-1.191" transform="translate(-68.451 -164.885)"/><path class="cls-5" d="M194.157,304.553a5.062,5.062,0,0,0,1.6.594,11.949,11.949,0,0,0,1.967.248c.679.037,1.259.051,1.75.051a5.651,5.651,0,0,0,3.35-.843,4.809,4.809,0,0,0,1.673-2.084,9.528,9.528,0,0,0,.657-2.577,21.994,21.994,0,0,0,.147-2.333q0-.493-.075-1.985c-.049-.988-.072-1.651-.072-1.984a29.97,29.97,0,0,0-3.059,1.888q-1.9,1.288-3.86,2.724a28.812,28.812,0,0,0-3.354,2.831,3.8,3.8,0,0,0-1.384,2.379,1.219,1.219,0,0,0,.655,1.091m-12.164,1.738q2.481-2.035,5.464-4.613t6.338-5.4q3.353-2.834,6.337-5.409t5.318-4.612c1.553-1.354,2.72-2.367,3.5-3.027a8.273,8.273,0,0,0,1.747-2.084,22.076,22.076,0,0,1,2.04-2.727,12.717,12.717,0,0,1,2.695-2.331,6.694,6.694,0,0,1,3.716-.992,15.521,15.521,0,0,1-1.021,5.555q-1.02,2.68-2.185,5.308t-2.186,5.358a15.918,15.918,0,0,0-1.019,5.6v4.561l5.827-2.576a4.326,4.326,0,0,1,.218,1.286c.046.664.073,1.091.073,1.29a5.347,5.347,0,0,1-2.041,4.219,17.014,17.014,0,0,1-5.024,2.874,29.634,29.634,0,0,1-6.482,1.636,46.516,46.516,0,0,1-6.556.5h-1.9c-.679,0-1.383-.014-2.112-.049s-1.382-.048-1.967-.048h-1.019a3.347,3.347,0,0,1-.729-.2c-.388-.131-.779-.281-1.163-.446s-.78-.314-1.166-.448a3.37,3.37,0,0,0-.729-.195,5.477,5.477,0,0,0-1.095.195c-.532.134-1.14.269-1.818.4s-1.313.281-1.894.447a7.133,7.133,0,0,1-1.021.248h-1.895a5.344,5.344,0,0,1-1.019-.6,4.569,4.569,0,0,1-.876-.691q1.168-.995,3.643-3.027" transform="translate(-68.451 -164.885)"/><path class="cls-5" d="M163.545,342.073c16.337-5.583,32.979-10.328,49.718-14.52,2.276-.576,4.744-7.675,3.716-7.416-16.738,4.194-33.382,8.941-49.716,14.523-2.274.773-4.529,7.689-3.718,7.413" transform="translate(-68.451 -164.885)"/><path class="cls-4" d="M360.825,234.557c-5.157,0-8.519,3.3-8.519,7.746v18.633H393.5v17.479h-41.19V322.6H298.84V240.487c0-12.691,7.13-23.408,26.93-23.408h75.045v17.478Z" transform="translate(-68.451 -164.885)"/></g><path class="cls-4" d="M442.016,237.03l-18.022,48.146h33.862Zm29.305,85.734-6.938-18.632H416.272l-7.723,18.632H384.385l40.6-105.686h62.373l38.607,105.686Z" transform="translate(-68.451 -164.885)"/><g class="cls-2"><path class="cls-4" d="M636.68,234.885H604.211c-2.382,0-4.957.328-6.14.991-.791.656-4.559,3.462-2.373,8.243.193.656,1.186,1.811,2.771,3.627l34.059,38.415c3.166,3.463,10.1,12.861,2.574,25.382-6.344,10.565-19.413,11.058-21.387,11.058H532.328V304.958h31.483c2.373,0,5.549-.334,6.931-1.319,4.559-3.3,3.568-6.6,1.985-9.562-.6-.991-1.785-1.653-2.973-3.3l-32.873-36.933a20.578,20.578,0,0,1-1.582-24.733c7.125-11.208,22.764-12.035,24.952-12.035H636.68Z" transform="translate(-68.451 -164.885)"/></g><polygon class="cls-4" points="664.484 70.492 664.484 157.715 610.414 157.715 610.414 70.492 575.773 70.492 575.773 52.194 699.137 52.194 699.137 70.492 664.484 70.492"/><g class="cls-2"><path class="cls-4" d="M397.294,378.241c-1.307,0-1.636.052-2.071.767s-.057,1.471.435,2.128l5.726,7.9c.767,1.037,2.945,3.92,1.522,7.142-.925,2.127-2.665,2.672-4.956,2.672H379.681v-5.015h5.839a2.08,2.08,0,0,0,1.9-.879,1.926,1.926,0,0,0-.27-2.233l-5.994-8.18c-1.476-2.126-2.021-4.74-.825-6.872,1.206-2.069,2.952-2.449,5.29-2.449h17.343v5.015Z" transform="translate(-68.451 -164.885)"/><path class="cls-4" d="M433.454,408.557H419.712v-5.015h5.835c2.18,0,2.614-.65,2.614-1.851v-2.837H415.182c-6.049,0-8.556-3.6-8.556-9.328v-16.3h12.866v18.487c0,1.576.548,2.126,2.13,2.126h4.742c1.205,0,1.527-.164,1.527-2.179V373.225h12.868v27.814c0,4.853-2.614,7.518-7.305,7.518" transform="translate(-68.451 -164.885)"/><path class="cls-4" d="M461.922,378.241c-1.306,0-1.641.052-2.073.767s-.054,1.471.432,2.128l5.731,7.9c.762,1.037,2.942,3.92,1.529,7.142-.925,2.127-2.671,2.672-4.962,2.672H444.31v-5.015h5.835a2.1,2.1,0,0,0,1.911-.879,1.967,1.967,0,0,0-.27-2.233l-6-8.18c-1.476-2.126-2.022-4.74-.82-6.872,1.195-2.069,2.947-2.449,5.291-2.449h17.337v5.015Z" transform="translate(-68.451 -164.885)"/><path class="cls-4" d="M478.616,398.854c-4.09,0-7.635-1.635-7.635-8.015V367.665h12.868v5.56h8.073v5.016h-8.073v13.523c0,1.635.274,2.075,2.569,2.075h6.213v5.015Z" transform="translate(-68.451 -164.885)"/><path class="cls-4" d="M517.665,380.315c0-1.471-.436-2.075-1.854-2.075H510.52c-1.418,0-1.855.6-1.855,2.075v4.032h9Zm-9,9.053v1.851c0,1.852.871,2.619,2.945,2.619h13.851v5.016H503.213c-5.776,0-7.417-2.4-7.417-7.746V380.971c0-5.349,1.641-7.746,7.417-7.746H522.79c5.783,0,7.417,2.4,7.417,7.746v8.4Z" transform="translate(-68.451 -164.885)"/><path class="cls-4" d="M571.6,398.854V380.1c0-1.313-.6-1.858-1.584-1.858h-4.258c-.978,0-1.576.545-1.576,1.858v18.755H552.408V380.1c0-1.313-.6-1.858-1.588-1.858h-4.248c-.983,0-1.581.545-1.581,1.858v18.755h-11.78V373.225h42.372c4.249,0,7.8,1.2,7.8,10.031v15.6Z" transform="translate(-68.451 -164.885)"/><path class="cls-4" d="M625.159,398.854V380.1c0-1.313-.6-1.858-1.583-1.858h-4.254c-.983,0-1.581.545-1.581,1.858v18.755H605.963V380.1c0-1.313-.6-1.858-1.582-1.858h-4.254c-.978,0-1.581.545-1.581,1.858v18.755H586.768V373.225h42.37c4.259,0,7.8,1.2,7.8,10.031v15.6Z" transform="translate(-68.451 -164.885)"/><path class="cls-4" d="M659.032,362.591H668.3v7.09h-9.263Zm3.216,17.724c0-1.47-.435-2.074-1.962-2.074h-5.344c-1.419,0-1.86.6-1.86,2.074v11.449c0,1.471.441,2.075,1.86,2.075h5.344c1.527,0,1.962-.6,1.962-2.075Zm-15.6-17.724h9.216v7.09h-9.216ZM667.7,398.854H647.63c-5.778,0-7.413-2.4-7.413-7.746V380.971c0-5.35,1.635-7.746,7.413-7.746H667.7c5.778,0,7.413,2.4,7.413,7.746v10.137c0,5.344-1.635,7.746-7.413,7.746" transform="translate(-68.451 -164.885)"/><path class="cls-4" d="M700.641,380.2c0-1.418-.547-1.963-1.795-1.963h-5.133c-1.254,0-1.793.545-1.793,1.963v11.671c0,1.413.539,1.964,1.793,1.964h5.133c1.248,0,1.795-.551,1.795-1.964Zm4.8,18.65H679.047v-34.9H691.92v9.269h13.518c5.894,0,8.067,3.27,8.067,7.958v9.708c0,4.688-2.173,7.963-8.067,7.963" transform="translate(-68.451 -164.885)"/><path class="cls-4" d="M738.871,380.315c0-1.471-.437-2.075-1.851-2.075h-5.289c-1.42,0-1.854.6-1.854,2.075v4.032h8.994Zm-8.994,9.053v1.851c0,1.852.867,2.619,2.948,2.619h13.847v5.016h-22.25c-5.778,0-7.417-2.4-7.417-7.746V380.971c0-5.349,1.639-7.746,7.417-7.746H744c5.783,0,7.418,2.4,7.418,7.746v8.4Z" transform="translate(-68.451 -164.885)"/></g><polygon class="cls-4" points="686.568 199.071 686.568 204.96 686.568 228.074 686.568 233.969 699.436 233.969 699.436 199.071 686.568 199.071"/></svg>