<?xml version="1.0" encoding="UTF-8"?><svg id="Layer_1" xmlns="http://www.w3.org/2000/svg" viewBox="0 0 64 64"><defs><style>.cls-1{fill:none;stroke:#221f20;stroke-linecap:round;stroke-linejoin:round;}</style></defs><line class="cls-1" x1="57.5" y1="62.7" x2="52.9" y2="62.7"/><line class="cls-1" x1="38.1" y1="62.7" x2="6.5" y2="62.7"/><path class="cls-1" d="M27.4,9.1h1.7c4.8,0,8.7,3.9,8.7,8.7h-19c0-4.8,3.9-8.7,8.7-8.7Z"/><path class="cls-1" d="M24.1,17.7h8.3c0,2.1-1.7,3.8-3.8,3.8h-.7c-2.1,0-3.8-1.7-3.8-3.8h0Z"/><path class="cls-1" d="M27.5,9.1v-4.9c0-1.6,1.3-2.9,2.9-2.9h11.9c1.6,0,2.9,1.3,2.9,2.9.1,17.7.3,35.5.4,53.2"/><polygon class="cls-1" points="24.1 62.5 13.9 62.5 11.8 53.5 26.2 53.5 24.1 62.5"/><path class="cls-1" d="M52.9,61.4v1.2h-14.8v-1.2c0-2.2,1.8-4,4-4h6.8c2.2,0,4,1.8,4,4Z"/><path class="cls-1" d="M17.9,26.4c-1.1,1.3-2.7,3.5-3.7,6.5-.7,1.9-.9,3.7-1,5,.2,1.1,1,1.9,1.9,2.2,1.2.4,2.5,0,3.2-1.1.4-1.4.8-3.4.8-5.8,0-3-.7-5.3-1.3-6.9Z"/><path class="cls-1" d="M28.2,39.1c-.4-.2-2.6-1-4.9.2-1.6.8-2.4,2-2.7,2.5-.4.6-.4,1.4,0,2.1.4.7,1.3,1.2,2.2,1,.8-.9,1.7-1.9,2.6-2.8,1-1,1.9-2,2.9-2.9Z"/><path class="cls-1" d="M20.8,44.4c-.5,1.2-1,2.6-1.4,4.2-.5,1.9-.6,3.6-.7,5-.9-1.2-2.4-3.3-3.2-6.4-.8-3-.5-5.6-.3-7"/></svg>