<?xml version="1.0" encoding="UTF-8"?><svg id="Layer_1" xmlns="http://www.w3.org/2000/svg" viewBox="0 0 64 64"><defs><style>.cls-1{fill:none;stroke:#221f20;stroke-linecap:round;stroke-linejoin:round;}</style></defs><polygon class="cls-1" points="61.2 23.9 61.2 62.9 4.8 62.9 4.8 57.3 14.4 57.3 14.4 49.2 24.1 49.2 24.1 40.7 33.8 40.7 33.8 32.4 43.5 32.4 43.5 23.9 61.2 23.9"/><path class="cls-1" d="M61.3,1.1v4.4h-17.4l-1.5,1.5-9.4,9.3-9.4,9.3-9.3,9.2-8.5,8.4c-.3.3-.7.5-1.1.5,0,0-.1,0-.2,0-.5,0-1.1-.2-1.4-.7-.6-.7-.5-1.7.1-2.4l11-11,9.3-9.3,9.4-9.4L42.8,1.2h8.8s9.7,0,9.7,0Z"/><line class="cls-1" x1="61.3" y1="62.9" x2="61.3" y2="5.5"/><polyline class="cls-1" points="51.6 23.9 51.6 15.6 51.6 5.5"/><polyline class="cls-1" points="42.4 32.4 42.4 24.1 42.4 7"/><polyline class="cls-1" points="33 40.7 33 32.8 33 16.3"/><polyline class="cls-1" points="23.6 49.2 23.6 41.4 23.6 25.7"/><line class="cls-1" x1="14.3" y1="57.3" x2="14.3" y2="34.9"/><line class="cls-1" x1="4.7" y1="62.7" x2="4.7" y2="43.8"/></svg>