<?xml version="1.0" encoding="UTF-8"?><svg id="Layer_1" xmlns="http://www.w3.org/2000/svg" viewBox="0 0 64 64"><defs><style>.cls-1{fill:none;stroke:#221f20;stroke-linecap:round;stroke-linejoin:round;}</style></defs><rect class="cls-1" x="4.6" y="1.3" width=".1" height="4.7"/><polygon class="cls-1" points="59.3 58.6 59.3 62.8 4.6 62.8 4.6 6 4.8 6 4.8 58.6 59.3 58.6"/><polygon class="cls-1" points="59.3 1.2 59.3 1.3 4.8 1.3 4.8 6 4.6 6 4.6 1.2 59.3 1.2"/><rect class="cls-1" x="31.1" y="6" width="28.2" height="52.6"/><rect class="cls-1" x="4.8" y="6" width="26.3" height="52.6"/><rect class="cls-1" x="4.8" y="1.3" width="54.5" height="4.7"/><rect class="cls-1" x="4.8" y="1.2" width="54.5" height=".1"/><polygon class="cls-1" points="59.4 13.8 59.4 58.6 31.1 58.6 31.1 6 59.3 6 59.3 13.8 59.4 13.8"/><rect class="cls-1" x="31.1" y="1.2" width="28.2" height=".1"/><polygon class="cls-1" points="59.4 13.8 59.4 58.6 31.1 58.6 31.1 6 59.3 6 59.3 13.8 59.4 13.8"/><rect class="cls-1" x="31.1" y="13.8" width="28.3" height="44.7"/><path class="cls-1" d="M36.7,17.3h0c1.4,0,2.5,1.1,2.5,2.5v31.8h-5v-31.8c0-1.4,1.1-2.5,2.5-2.5Z"/><line class="cls-1" x1="36.7" y1="11.5" x2="36.7" y2="17.2"/><path class="cls-1" d="M53.6,17.3h0c1.4,0,2.5,1.1,2.5,2.5v31.8h-5v-31.8c0-1.4,1.1-2.5,2.5-2.5Z"/><line class="cls-1" x1="53.6" y1="11.5" x2="53.6" y2="17.2"/><path class="cls-1" d="M45.1,17.3h0c1.4,0,2.5,1.1,2.5,2.5v31.8h-5v-31.8c0-1.4,1.1-2.5,2.5-2.5Z"/><line class="cls-1" x1="45.1" y1="11.5" x2="45.1" y2="17.2"/><line class="cls-1" x1="26.3" y1="31.1" x2="26.3" y2="33.6"/></svg>