<?xml version="1.0" encoding="UTF-8"?><svg id="Layer_1" xmlns="http://www.w3.org/2000/svg" viewBox="0 0 64 64"><defs><style>.cls-1{fill:none;stroke:#221f20;stroke-linecap:round;stroke-linejoin:round;}</style></defs><path class="cls-1" d="M35,8.4c0,1.8-.4,3.4-1.1,4.9h-3.2c-.7-1.5-1.1-3.1-1.1-4.9s0-1.7.3-2.5c.4-1.8,1.2-3.4,2.4-4.7,1.2,1.3,2,2.9,2.4,4.7.2.8.3,1.6.3,2.5Z"/><path class="cls-1" d="M38.2,10.4c-.6,1.1-1.3,2.1-2.1,2.9h-2.3c.7-1.5,1.1-3.1,1.1-4.9s0-1.7-.3-2.5c1.2-1.4,2.7-2.5,4.3-3.2.7,2.5.5,5.2-.8,7.7Z"/><path class="cls-1" d="M30.6,13.3h-2.3c-.8-.8-1.5-1.8-2.1-2.9-1.2-2.5-1.4-5.2-.8-7.7,1.7.7,3.2,1.8,4.4,3.2-.2.8-.3,1.6-.3,2.5,0,1.8.4,3.4,1.1,4.9Z"/><path class="cls-1" d="M39.5,13.3v6c0,1.8-1.1,3.3-2.7,3.8h-9.5c-1.6-.6-2.7-2-2.7-3.8v-6h14.9Z"/><rect class="cls-1" x="4.2" y="23.1" width="55.6" height="7.2"/><path class="cls-1" d="M7.7,30.2v27h49v-27H7.7ZM29.6,50.9H13.3v-16.3h16.3v16.3ZM51.3,50.9h-16.3v-16.3h16.3v16.3Z"/><rect class="cls-1" x="13.3" y="34.5" width="16.3" height="16.3"/><rect class="cls-1" x="35" y="34.5" width="16.3" height="16.3"/><rect class="cls-1" x="13.3" y="34.5" width="16.3" height="16.3"/><rect class="cls-1" x="35" y="34.5" width="16.3" height="16.3"/><polygon class="cls-1" points="18.6 57.2 16.8 62.8 11.2 62.8 11.2 57.2 18.6 57.2"/><polygon class="cls-1" points="53.3 57.2 53.3 62.8 47.7 62.8 45.9 57.2 53.3 57.2"/><line class="cls-1" x1="24.1" y1="41.1" x2="24.1" y2="43.2"/><line class="cls-1" x1="39.9" y1="41.5" x2="39.9" y2="43.6"/></svg>