<?xml version="1.0" encoding="UTF-8"?><svg id="Layer_1" xmlns="http://www.w3.org/2000/svg" viewBox="0 0 64 64"><defs><style>.cls-1{fill:none;stroke:#221f20;stroke-linecap:round;stroke-linejoin:round;}</style></defs><path class="cls-1" d="M30.4,7.2L7,20.7v37.7c0,2.5,2,4.6,4.6,4.6h40.6c2.5,0,4.5-2,4.5-4.6V20.5l-23-13.3c-1-.6-2.2-.6-3.2,0ZM44.4,31.6c0,2.3-1.9,4.1-4.1,4.1h-6.2v13.4h7.1c1.2,0,2.2,1,2.2,2.3s-1,2.2-2.2,2.2h-.2l-1.8,9h-14.2l-1.8-9h-.3c-1.3,0-2.2-1-2.2-2.2s1-2.3,2.2-2.3h6.5v-6.6h-6.4c-2,0-3.7-1.6-3.7-3.7v-9c0-1.3,1.1-2.4,2.4-2.4s2.4,1.1,2.4,2.4v7c0,.6.5,1.1,1.1,1.1h4.2v-15.9c0-1.3,1.1-2.4,2.4-2.4s2.4,1.1,2.4,2.4v9.1h4.6c.6,0,1-.4,1-1v-7c0-1.3,1.1-2.4,2.4-2.4s2.4,1.1,2.4,2.4v8.5Z"/><path class="cls-1" d="M43.3,51.4c0,1.2-1,2.2-2.2,2.2h-18.4c-1.3,0-2.2-1-2.2-2.2s1-2.3,2.2-2.3h18.4c1.2,0,2.2,1,2.2,2.3Z"/><polygon class="cls-1" points="40.9 53.7 39.1 62.6 24.9 62.6 23.1 53.7 40.9 53.7"/><path class="cls-1" d="M34.1,22v27.1h-4.8v-27.1c0-1.3,1.1-2.4,2.4-2.4s2.4,1.1,2.4,2.4Z"/><path class="cls-1" d="M29.3,37.9v4.6h-6.4c-2,0-3.7-1.6-3.7-3.7v-9c0-1.3,1.1-2.4,2.4-2.4h0c1.3,0,2.4,1.1,2.4,2.4v7c0,.6.5,1.1,1.1,1.1h4.2Z"/><path class="cls-1" d="M44.4,23.1v8.5c0,2.3-1.9,4.1-4.1,4.1h-6.2v-4.6h4.6c.6,0,1-.5,1-1v-7c0-1.3,1.1-2.4,2.4-2.4h0c1.3,0,2.4,1.1,2.4,2.4Z"/><path class="cls-1" d="M62.4,21h0c-.7,1.2-2.2,1.6-3.4.9l-2.4-1.4-23-13.3c-1-.6-2.2-.6-3.2,0L7,20.7l-2.1,1.2c-1.2.7-2.7.3-3.4-.9h0c-.7-1.2-.3-2.7.9-3.4l4.5-2.6L27.1,3.4l3.3-1.9c1-.6,2.2-.6,3.2,0l3.3,1.9,19.7,11.4,4.9,2.8c1.2.7,1.6,2.2.9,3.4Z"/></svg>