<?xml version="1.0" encoding="UTF-8"?><svg id="Layer_1" xmlns="http://www.w3.org/2000/svg" viewBox="0 0 64 64"><defs><style>.cls-1{fill:none;stroke:#221f20;stroke-linecap:round;stroke-linejoin:round;}</style></defs><polygon class="cls-1" points="62.4 36.2 62.4 41.4 6.1 41.4 6.1 57.6 38 57.6 38 62.8 1.6 62.8 1.6 36.2 9.5 36.2 9.5 36.2 58.2 36.2 58.2 36.2 62.4 36.2"/><rect class="cls-1" x="9.5" y="36.2" width="48.7" height="0"/><rect class="cls-1" x="6.1" y="41.4" width="31.9" height="16.2"/><rect class="cls-1" x="57.3" y="41.4" width="5.1" height="21.4"/><rect class="cls-1" x="9.5" y="36.2" width="48.7" height="0"/><rect class="cls-1" x="38" y="41.4" width="5" height="21.4"/><rect class="cls-1" x="6.1" y="41.4" width="31.9" height="16.2"/><rect class="cls-1" x="43" y="41.4" width="4.9" height="21.4"/><rect class="cls-1" x="48" y="41.4" width="4.7" height="21.4"/><rect class="cls-1" x="52.6" y="41.4" width="4.7" height="21.4"/><rect class="cls-1" x="57.3" y="41.4" width="5.1" height="16.2"/><polygon class="cls-1" points="62.4 14.1 62.4 36.2 58.2 36.2 58.2 17.3 51.2 14.1 33.9 6.1 16.5 14.1 9.5 17.3 9.5 36.2 5.6 36.2 5.6 14.1 34 1.2 62.4 14.1"/><polygon class="cls-1" points="58.2 17.3 58.2 36.2 9.5 36.2 9.5 17.3 16.5 14.1 33.9 6.1 51.2 14.1 58.2 17.3"/><line class="cls-1" x1="38" y1="41.4" x2="38" y2="40.2"/><line class="cls-1" x1="43" y1="41.4" x2="43" y2="40.2"/><line class="cls-1" x1="48" y1="41.4" x2="48" y2="40.2"/><line class="cls-1" x1="52.6" y1="41.4" x2="52.6" y2="40.2"/><line class="cls-1" x1="57.3" y1="41.4" x2="57.3" y2="40.2"/></svg>