<?xml version="1.0" encoding="UTF-8"?><svg id="Layer_1" xmlns="http://www.w3.org/2000/svg" viewBox="0 0 64 64"><defs><style>.cls-1{fill:none;stroke:#221f20;stroke-linecap:round;stroke-linejoin:round;}</style></defs><polygon class="cls-1" points="62.9 1.1 62.9 62.9 1.1 62.9 1.1 1.1 5.6 1.1 5.6 11.6 28.3 11.6 28.3 1.1 62.9 1.1"/><path class="cls-1" d="M62.9,1.1v29.2h-22.9c-2.9,0-5.3-2.4-5.3-5.3V1.1h28.1Z"/><rect class="cls-1" x="33.2" y="50.5" width="23.2" height="12.4"/><rect class="cls-1" x="5.5" y="41.8" width="3.8" height="21.1"/><rect class="cls-1" x="5.6" y="1.1" width="22.7" height="10.5"/><path class="cls-1" d="M26.5,59.6v3.3H9.3v-18.9h1.6c8.6,0,15.6,7,15.6,15.6Z"/><rect class="cls-1" x="42.5" y="55.7" width="4.7" height="7.2"/><path class="cls-1" d="M25.2,18.8c0,5.6-3.7,10.1-8.2,10.1s-8.2-4.5-8.2-10.1,1-5.4,2.5-7.2h11.4c1.5,1.8,2.5,4.4,2.5,7.2Z"/><circle class="cls-1" cx="40.7" cy="23.8" r="2.3"/></svg>