<?xml version="1.0" encoding="UTF-8"?><svg id="Layer_1" xmlns="http://www.w3.org/2000/svg" viewBox="0 0 64 64"><defs><style>.cls-1{fill:none;stroke:#221f20;stroke-linecap:round;stroke-linejoin:round;}</style></defs><rect class="cls-1" x="8" y="32.1" width="48" height="5.8"/><rect class="cls-1" x="39" y="37.9" width="17" height="8.7"/><rect class="cls-1" x="39" y="46.6" width="17" height="8"/><rect class="cls-1" x="39" y="54.7" width="17" height="8.3"/><rect class="cls-1" x="8" y="37.9" width="5.5" height="24.9"/><path class="cls-1" d="M50.8,7.4v24.7H14V7.4c3.5,0,6.4-2.9,6.4-6.4h24c0,3.5,2.9,6.4,6.4,6.4Z"/><path class="cls-1" d="M46.6,12.2v20h-28.4V12.2c2.7,0,4.9-2.4,4.9-5.3h18.5c0,2.9,2.2,5.3,4.9,5.3Z"/><line class="cls-1" x1="46.1" y1="42.1" x2="50" y2="42.1"/><line class="cls-1" x1="46.1" y1="50.4" x2="50" y2="50.4"/><line class="cls-1" x1="46.1" y1="58.3" x2="50" y2="58.3"/></svg>