<?xml version="1.0" encoding="UTF-8"?><svg id="Layer_1" xmlns="http://www.w3.org/2000/svg" viewBox="0 0 64 64"><defs><style>.cls-1{fill:none;stroke:#221f20;stroke-linecap:round;stroke-linejoin:round;}</style></defs><polygon class="cls-1" points="16.2 22.5 21.1 28.7 7.5 28.7 7.5 22.5 16.2 22.5"/><polygon class="cls-1" points="56.5 22.5 56.5 28.7 42.7 28.7 47.7 22.5 56.5 22.5"/><line class="cls-1" x1="1.3" y1="51.8" x2="1.3" y2="41.4"/><line class="cls-1" x1="1.3" y1="34.3" x2="1.3" y2="16.9"/><line class="cls-1" x1="13.7" y1="51.8" x2="13.7" y2="41.4"/><polyline class="cls-1" points="13.7 34.3 13.7 30.3 13.7 28.7"/><rect class="cls-1" x="1.3" y="34.3" width="12.4" height="7"/><line class="cls-1" x1="62.7" y1="52.3" x2="62.7" y2="41.8"/><line class="cls-1" x1="62.7" y1="34.8" x2="62.7" y2="17.4"/><line class="cls-1" x1="50.3" y1="52.3" x2="50.3" y2="41.8"/><polyline class="cls-1" points="50.3 34.8 50.3 30.8 50.3 29.1"/><rect class="cls-1" x="50.3" y="34.8" width="12.4" height="7"/><polygon class="cls-1" points="47.6 22.5 42.7 28.7 31.9 42.1 21.1 28.7 16.1 22.5 47.6 22.5"/><path class="cls-1" d="M33.6,22.3h-3.6c-.6-2.1-.5-3.7-.2-4.7.3-1.2.8-2.2.7-3.8,0-.9-.3-1.6-.5-2h3.6c-.2.5-.5,1.3-.5,2.2,0,1.6.7,2.5,1,3.8.2,1,.3,2.5-.5,4.5Z"/></svg>