<?xml version="1.0" encoding="UTF-8"?><svg id="Layer_1" xmlns="http://www.w3.org/2000/svg" viewBox="0 0 64 64"><defs><style>.cls-1{fill:none;stroke:#221f20;stroke-linecap:round;stroke-linejoin:round;}</style></defs><path class="cls-1" d="M63.3,7.8c0,.6-.1,1.2-.4,1.7-.6,1.3-2,2.3-3.6,2.3s-3-.9-3.6-2.3H7.9c-.6,1.2-1.9,2.1-3.4,2.1s-2.8-.8-3.4-2.1c-.1-.2-.2-.4-.3-.6-.1-.4-.2-.7-.2-1.1s0-.8.2-1.1c0-.2.1-.4.3-.6.6-1.2,1.9-2.1,3.4-2.1s2.8.8,3.4,2.1h47.7c.7-1.3,2-2.3,3.6-2.3s3,.9,3.6,2.3c.3.5.4,1.1.4,1.8Z"/><path class="cls-1" d="M10.9,9.5h5.6v47.6c0,1.5-1.2,2.8-2.8,2.8h0c-1.5,0-2.8-1.2-2.8-2.8V9.5h0Z"/><path class="cls-1" d="M16.5,9.5h5.6v47.6c0,1.5-1.2,2.8-2.8,2.8h0c-1.5,0-2.8-1.2-2.8-2.8V9.5h0Z"/><path class="cls-1" d="M22,9.5h5.6v47.6c0,1.5-1.2,2.8-2.8,2.8h0c-1.5,0-2.8-1.2-2.8-2.8V9.5h0Z"/><path class="cls-1" d="M52.9,9.5v33.6h-10.1c-1.8-2.8-3.6-6.4-5.1-10.7-3.2-9.5-2.9-17.9-2.3-22.9h17.4Z"/><path class="cls-1" d="M52.9,48.2v12.1h-14.4c0-1.7,0-5.4,2-9.4.6-1,1.2-1.9,1.8-2.7h10.6Z"/><rect class="cls-1" x="39.6" y="43.1" width="15.6" height="5.1"/></svg>