<?xml version="1.0" encoding="UTF-8"?><svg id="Layer_1" xmlns="http://www.w3.org/2000/svg" viewBox="0 0 64 64"><defs><style>.cls-1{fill:none;stroke:#221f20;stroke-linecap:round;stroke-linejoin:round;}</style></defs><rect class="cls-1" x="1.3" y="38.3" width="16.3" height="24.5"/><rect class="cls-1" x="17.5" y="38.3" width="16.1" height="24.5"/><rect class="cls-1" x="1.3" y="34.3" width="61.5" height="3.9"/><rect class="cls-1" x="33.7" y="38.3" width="29.1" height="24.5"/><rect class="cls-1" x="1.3" y="1.7" width="13.5" height="18.7"/><rect class="cls-1" x="14.8" y="1.7" width="13.1" height="18.7"/><line class="cls-1" x1="14" y1="42.1" x2="14" y2="44.8"/><line class="cls-1" x1="29.4" y1="42.3" x2="29.4" y2="45"/><line class="cls-1" x1="59" y1="42.2" x2="59" y2="44.9"/><line class="cls-1" x1="11.4" y1="13.6" x2="11.4" y2="16.3"/><line class="cls-1" x1="18.3" y1="13.6" x2="18.3" y2="16.3"/><rect class="cls-1" x="34.7" y="30.6" width="25.3" height="3.7"/><rect class="cls-1" x="39.3" y="1.2" width="14.4" height="5.4"/><rect class="cls-1" x="33" y="15.8" width="27" height="4.3"/><polygon class="cls-1" points="53.7 6.7 58.9 15.8 34.1 15.8 39.3 6.7 53.7 6.7"/></svg>