<?xml version="1.0" encoding="UTF-8" standalone="no"?>
<svg xmlns:xlink="http://www.w3.org/1999/xlink" id="Ebene_1" data-name="Ebene 1" xmlns="http://www.w3.org/2000/svg" viewBox="0 0 699.52 243.64" style=""><defs><style>.cls-1{fill:#fff;}</style></defs><path class="cls-1" d="M50.52,103.34c0-23.7-10.3-53.2-17.8-71.2L13.82,25C3.32,21-2.48,26.54,1,37.24c0,0,11.6,35.9,11.6,66.1S1,169.44,1,169.44c-3.5,10.7,2.3,16.2,12.8,12.2l18.9-7.1C40.22,156.54,50.52,127,50.52,103.34Z" transform="translate(0 0)" fill="#FFFFFF" style="fill: rgb(255, 255, 255) ;"/><path class="cls-1" d="M136.72,128.74a26.2,26.2,0,0,0-3.1,1.9l-3.9,2.7c-1.3,1-2.4,1.9-3.4,2.8a3.83,3.83,0,0,0-1.4,2.4,1.88,1.88,0,0,0,.8,1.1,3.82,3.82,0,0,0,1.6.6,12.31,12.31,0,0,0,2,.2c.7,0,1.3.1,1.8.1a5.71,5.71,0,0,0,3.3-.8,5.65,5.65,0,0,0,1.7-2.1,11.07,11.07,0,0,0,.7-2.6,20.15,20.15,0,0,0,.1-2.3,19.17,19.17,0,0,0-.1-2C136.82,129.74,136.72,129,136.72,128.74Z" transform="translate(0 0)" fill="#F9B233" style="fill: rgb(249, 178, 51) ;"/><path class="cls-1" d="M87.52,149.54a14.16,14.16,0,0,0-3.8,2.9,43,43,0,0,0-4,5.1c-1.3,1.9-2.6,4.1-3.8,6.3s-2.3,4.5-3.4,6.6-1.9,4.1-2.6,6-1.2,3.3-1.5,4.3c.1.1.3.1.6.1h.4a6.87,6.87,0,0,0,4.2-1.7,21.5,21.5,0,0,0,4.2-4.3,46.43,46.43,0,0,0,3.9-5.9,47.93,47.93,0,0,0,3.1-6.5,47.26,47.26,0,0,0,2.1-5.9,17.94,17.94,0,0,0,.8-4.4,8.47,8.47,0,0,0-.1-1.3C87.62,150.14,87.52,149.74,87.52,149.54Z" transform="translate(0 0)" fill="#F9B233" style="fill: rgb(249, 178, 51) ;"/><path class="cls-1" d="M176.52,51.24c-3.4-10.7-15.1-21.6-26-24.3L43.52.64C32.62-2.06,27.82,4,32.82,14c0,0,25.4,51.3,25.4,89.3s-25.4,89.3-25.4,89.3c-5,10.1-.1,16.1,10.7,13.4l107-26.3c10.9-2.7,22.6-13.6,26-24.3,0,0,8.7-27.4,8.7-52.1S176.52,51.24,176.52,51.24Zm-31.7,111.5c-16.7,4.2-33.4,8.9-49.7,14.5-.8.2,1.5-6.7,3.7-7.4,16.3-5.6,33-10.3,49.7-14.5C149.52,155,147.12,162.14,144.82,162.74Zm4.8-46.8c-.7,1.8-1.4,3.6-2.2,5.3s-1.5,3.5-2.2,5.4a15.4,15.4,0,0,0-1,5.6v4.6l5.8-2.6a3.09,3.09,0,0,1,.2,1.3c0,.7.1,1.1.1,1.3a5.31,5.31,0,0,1-2,4.2,17.3,17.3,0,0,1-5,2.9,26.9,26.9,0,0,1-6.5,1.6,51.43,51.43,0,0,1-6.6.5h-7c-.1,0-.3-.1-.7-.2s-.8-.3-1.2-.4a5.64,5.64,0,0,0-1.2-.4c-.4-.1-.6-.2-.7-.2a8.92,8.92,0,0,0-1.1.2c-.5.1-1.1.3-1.8.4s-1.3.3-1.9.4a3,3,0,0,1-1,.2h-1.9c-.2-.1-.5-.3-1-.6a4.55,4.55,0,0,1-.9-.7,28,28,0,0,1,3.8-3.3l.63-.52,0,0a20.69,20.69,0,0,1-5.8,2.5,39.53,39.53,0,0,1-7,1.5c-2.4.3-4.5.5-6.1.6-.2.7-.6,2-1.1,3.7s-1.1,3.6-1.7,5.5-1.2,3.8-1.7,5.5a36.46,36.46,0,0,1-1.2,3.6c-.3.9-.8,2.1-1.4,3.6a29.89,29.89,0,0,1-2.4,4.7c-1,1.7-2,3.3-3.2,5a28.68,28.68,0,0,1-3.9,4.5,21.07,21.07,0,0,1-4.7,3.3,12.42,12.42,0,0,1-5.3,1.2,6.89,6.89,0,0,1-3.9-1.2,3.26,3.26,0,0,1-1.9-2.7c-.2-.2-.1-.6.1-1.2a18,18,0,0,1,.5-1.9c.2-.7.4-1.4.6-2a6.45,6.45,0,0,1,.6-1.4c.3-.6.8-1.6,1.5-2.9s1.5-2.8,2.3-4.4,1.8-3.3,2.8-5.2,1.9-3.5,2.8-5.2,1.7-3.1,2.4-4.4,1.2-2.2,1.6-2.8a3.91,3.91,0,0,1-.8-3.2,6.29,6.29,0,0,1,1.6-3,16.1,16.1,0,0,1,3.1-2.5,21.14,21.14,0,0,1,3.8-1.7c2.1-2.6,4.4-5.3,6.7-8.3s4.8-5.9,7.3-8.9,5.2-5.9,7.9-8.8a108.41,108.41,0,0,1,8.7-8q.6-.45,2.1-1.5t1.8-1.2h.9a3,3,0,0,1,2.3.8,2.41,2.41,0,0,1,.7,1.8,19.07,19.07,0,0,1-2.5,8.9,50.38,50.38,0,0,1-6.3,8.7,89.78,89.78,0,0,1-8.2,8.1c-3,2.6-5.7,4.9-8.1,7a17.67,17.67,0,0,1,1.9.1,17.67,17.67,0,0,0,1.9.1c1.5,0,2.7-.1,3.8-.2a15.47,15.47,0,0,0,3.1-.6,15.84,15.84,0,0,0,3.1-1.3c1-.6,2.2-1.2,3.4-2a1.85,1.85,0,0,1,.2,1,7.72,7.72,0,0,0,.1,1,4,4,0,0,1-1.09,2.72c1.13-.94,2.32-1.94,3.59-3q3-2.55,6.3-5.4t6.3-5.4c2-1.7,3.8-3.3,5.3-4.6s2.7-2.4,3.5-3a7.41,7.41,0,0,0,1.7-2.1c.6-.9,1.3-1.8,2-2.7a11.78,11.78,0,0,1,2.7-2.3,6.41,6.41,0,0,1,3.7-1A15.4,15.4,0,0,1,149.62,115.94Z" transform="translate(0 0)" fill="#F9B233" style="fill: rgb(249, 178, 51) ;"/><path class="cls-1" d="M110.52,122.94a27,27,0,0,0,2.6-3.6,10.75,10.75,0,0,0,1.4-3.6,17.5,17.5,0,0,0-3.8,2.3,29.24,29.24,0,0,0-3.8,3.2,17.18,17.18,0,0,0-2.8,3.5,6.79,6.79,0,0,0-1.1,3.4v.6a24.18,24.18,0,0,0,4-2.5A22,22,0,0,0,110.52,122.94Z" transform="translate(0 0)" fill="#F9B233" style="fill: rgb(249, 178, 51) ;"/><path class="cls-1" d="M292.42,69.64c-5.2,0-8.5,3.3-8.5,7.7v18.6h41.2v17.5h-41.2v44.2h-53.5V75.54c0-12.7,7.1-23.4,26.9-23.4h75v17.5Z" transform="translate(0 0)" fill="#FFFFFF" style="fill: rgb(255, 255, 255) ;"/><path class="cls-1" d="M402.92,157.94l-6.9-18.6h-48.1l-7.7,18.6H316l40.6-105.7H419l38.6,105.7Zm-29.3-85.8-18,48.1h33.9Z" transform="translate(0 0)" fill="#FFFFFF" style="fill: rgb(255, 255, 255) ;"/><path class="cls-1" d="M568.32,70h-32.5c-2.4,0-5,.3-6.1,1-.8.7-4.6,3.5-2.4,8.2.2.7,1.2,1.8,2.8,3.6l34.1,38.4c3.2,3.5,10.1,12.9,2.6,25.4-6.3,10.6-19.4,11.1-21.4,11.1H464v-17.6h31.5c2.4,0,5.5-.3,6.9-1.3,4.6-3.3,3.6-6.6,2-9.6-.6-1-1.8-1.7-3-3.3L468.52,89a20.52,20.52,0,0,1-1.6-24.7c7.1-11.2,22.8-12,25-12h76.4V70Z" transform="translate(0 0)" fill="#FFFFFF" style="fill: rgb(255, 255, 255) ;"/><path class="cls-1" d="M664.52,70.54v87.2h-54.1V70.54h-34.6V52.24h123.4v18.3Z" transform="translate(0 0)" fill="#FFFFFF" style="fill: rgb(255, 255, 255) ;"/><path class="cls-1" d="M328.92,213.34c-1.3,0-1.6.1-2.1.8a1.86,1.86,0,0,0,.4,2.1l5.7,7.9c.8,1,2.9,3.9,1.5,7.1-.9,2.1-2.7,2.7-5,2.7h-18.3v-5h5.8a2,2,0,0,0,1.9-.9,1.87,1.87,0,0,0-.3-2.2l-6-8.2a6.47,6.47,0,0,1-.8-6.9c1.2-2.1,3-2.4,5.3-2.4h17.3v5Z" transform="translate(0 0)" fill="#FFFFFF" style="fill: rgb(255, 255, 255) ;"/><path class="cls-1" d="M365,243.64h-13.7v-5h5.8c2.2,0,2.6-.7,2.6-1.9v-2.8h-13c-6,0-8.6-3.6-8.6-9.3v-16.3h13v18.5c0,1.6.5,2.1,2.1,2.1h4.7c1.2,0,1.5-.2,1.5-2.2v-18.4h12.9v27.8C372.32,241,369.72,243.64,365,243.64Z" transform="translate(0 0)" fill="#FFFFFF" style="fill: rgb(255, 255, 255) ;"/><path class="cls-1" d="M393.52,213.34c-1.3,0-1.6.1-2.1.8a1.86,1.86,0,0,0,.4,2.1l5.7,7.9c.8,1,2.9,3.9,1.5,7.1-.9,2.1-2.7,2.7-5,2.7h-18.3v-5h5.8a2,2,0,0,0,1.9-.9,1.87,1.87,0,0,0-.3-2.2l-6-8.2a6.47,6.47,0,0,1-.8-6.9c1.2-2.1,2.9-2.4,5.3-2.4h17.3v5Z" transform="translate(0 0)" fill="#FFFFFF" style="fill: rgb(255, 255, 255) ;"/><path class="cls-1" d="M410.22,233.94c-4.1,0-7.6-1.6-7.6-8v-23.2h12.9v5.6h8.1v5h-8.1v13.5c0,1.6.3,2.1,2.6,2.1h6.2v5Z" transform="translate(0 0)" fill="#FFFFFF" style="fill: rgb(255, 255, 255) ;"/><path class="cls-1" d="M440.32,224.54v1.9c0,1.9.9,2.6,2.9,2.6h13.9v5h-22.2c-5.8,0-7.4-2.4-7.4-7.7v-10.1c0-5.3,1.6-7.7,7.4-7.7h19.6c5.8,0,7.4,2.4,7.4,7.7v8.4h-21.6v-.1Zm9-9.1c0-1.5-.4-2.1-1.9-2.1h-5.3c-1.4,0-1.9.6-1.9,2.1v4h9v-4Z" transform="translate(0 0)" fill="#FFFFFF" style="fill: rgb(255, 255, 255) ;"/><path class="cls-1" d="M503.22,233.94v-18.7c0-1.3-.6-1.9-1.6-1.9h-4.3c-1,0-1.6.5-1.6,1.9V234h-11.8v-18.8c0-1.3-.6-1.9-1.6-1.9h-4.2c-1,0-1.6.5-1.6,1.9V234h-11.8v-25.7h42.4c4.2,0,7.8,1.2,7.8,10v15.6Z" transform="translate(0 0)" fill="#FFFFFF" style="fill: rgb(255, 255, 255) ;"/><path class="cls-1" d="M556.72,233.94v-18.7c0-1.3-.6-1.9-1.6-1.9h-4.3c-1,0-1.6.5-1.6,1.9V234h-11.8v-18.8c0-1.3-.6-1.9-1.6-1.9h-4.3c-1,0-1.6.5-1.6,1.9V234h-11.8v-25.7h42.4c4.3,0,7.8,1.2,7.8,10v15.6Z" transform="translate(0 0)" fill="#FFFFFF" style="fill: rgb(255, 255, 255) ;"/><path class="cls-1" d="M599.32,233.94h-20.1c-5.8,0-7.4-2.4-7.4-7.7v-10.1c0-5.3,1.6-7.7,7.4-7.7h20.1c5.8,0,7.4,2.4,7.4,7.7v10.1C606.72,231.54,605.12,233.94,599.32,233.94Zm-21.1-29.1v-7.1h9.2v7.1Zm15.6,10.6c0-1.5-.4-2.1-2-2.1h-5.3c-1.4,0-1.9.6-1.9,2.1v11.4c0,1.5.4,2.1,1.9,2.1h5.3c1.5,0,2-.6,2-2.1Zm-3.2-10.6v-7.1h9.3v7.1Z" transform="translate(0 0)" fill="#FFFFFF" style="fill: rgb(255, 255, 255) ;"/><path class="cls-1" d="M637,233.94h-26.4V199h12.9v9.3H637c5.9,0,8.1,3.3,8.1,8V226C645.12,230.74,642.92,233.94,637,233.94Zm-4.8-18.6c0-1.4-.5-2-1.8-2h-5.1c-1.3,0-1.8.5-1.8,2V227c0,1.4.5,2,1.8,2h5.1c1.2,0,1.8-.6,1.8-2Z" transform="translate(0 0)" fill="#FFFFFF" style="fill: rgb(255, 255, 255) ;"/><path class="cls-1" d="M661.52,224.54v1.9c0,1.9.9,2.6,2.9,2.6h13.8v5H656c-5.8,0-7.4-2.4-7.4-7.7v-10.1c0-5.3,1.6-7.7,7.4-7.7h19.6c5.8,0,7.4,2.4,7.4,7.7v8.4h-21.5Zm9-9.1c0-1.5-.4-2.1-1.9-2.1h-5.3c-1.4,0-1.9.6-1.9,2.1v4h9v-4Z" transform="translate(0 0)" fill="#FFFFFF" style="fill: rgb(255, 255, 255) ;"/><path class="cls-1" d="M686.62,233.94V199h12.9v34.9Z" transform="translate(0 0)" fill="#FFFFFF" style="fill: rgb(255, 255, 255) ;"/></svg>