<?xml version="1.0" encoding="UTF-8"?> <svg xmlns="http://www.w3.org/2000/svg" id="Ebene_1" data-name="Ebene 1" viewBox="0 0 595.94 257.46"><defs><style> .cls-1 { fill: #004134; } </style></defs><path class="cls-1" d="M154.09,1.75C89.66-10.19,13.06,40.61,1.12,105.04c-5.34,28.83,9.01,59.63,32.24,85.97,1.51-1.95,3.04-3.9,4.57-5.85,4.07-5.17,8.27-10.51,12.04-15.9,3.69-5.29,6.88-10.89,9.97-16.32l1.94-3.4c.62-1.08,.88-2.57,.71-4.08-1.54-13.94-1.33-26.86,.63-39.48,.72-4.64,1.98-9.29,3.2-13.8,.34-1.26,.68-2.52,1.01-3.78,.32-1.22,1.15-2.36,2.05-3.52,1.7-2.19,4.15-3.5,6.89-3.69,2.75-.19,5.46,.75,7.66,2.66,4.78,4.16,5.99,9.3,6.55,13.79,1.22,9.92-1.87,18.97-6.03,29.76-1.93,4.99-4.08,10.32-6.8,15.52-2.43,4.64-2.95,8.62-1.62,12.51,.66,1.96,1.28,3.93,1.91,5.89,1.2,3.8,2.44,7.74,4,11.52,1.03,2.52,3.36,4.83,5.27,6.57,3.2,2.91,7.27,3.31,11.17,1.11,3.47-1.96,6.64-4.3,9.17-6.77,7.1-6.95,12.39-14.94,17.5-22.66l.94-1.42c.82-1.23,1.57-2.49,2.32-3.75,.93-1.55,1.89-3.15,2.96-4.69,1.99-2.85,2.35-5.89,2.45-8.76,.78-23.09,2.46-47.83,9.32-72.28,1.44-5.14,3.73-10.21,5.93-15.12l.81-1.81c.73-1.62,2.08-3.3,4.25-5.27,2.35-2.13,5.31-3.22,8.31-3.06,3.05,.17,5.8,1.58,7.75,3.98,3.22,3.96,3.97,8.36,4.27,11.74,.97,11.13-1.87,21.61-5.41,33.18-5.81,19.01-13.45,37.19-22.73,54.05-.54,.98-.84,2.11-.84,3.19l-.05,8.32c-.08,10.96-.16,22.3,.01,33.45,.16,10.39,.6,21.37,1.36,33.58,.06,.97,.11,1.94,.15,2.91,.26,5.3,.53,10.79,2.87,15.95,.89,1.96,.07,3.72-2.26,4.84-.93,.44-1.88,.66-2.84,.66-1.31,0-2.63-.41-3.92-1.23-3.35-2.13-4.09-5.18-4.38-7.88l-.35-3.2c-.7-6.45-1.43-13.12-1.66-19.69-.42-11.82-.65-23.84-.87-35.47-.09-4.76-.18-9.51-.28-14.27-.54,.75-1.07,1.51-1.6,2.27-1.78,2.53-3.62,5.15-5.67,7.63-3.27,3.95-7.21,8.57-11.65,12.84-2.27,2.19-5.33,4.27-9.1,6.18-9.15,4.64-19.53,3.62-27.07-2.66-5.48-4.56-8.14-10.08-10.19-15.35-.51-1.3-.95-2.64-1.42-4.06-.09-.28-.18-.56-.28-.85-.19,.28-.36,.54-.53,.79-6.35,9.76-14.27,21.17-24.89,31.81-.22,.22-.47,.44-.71,.65,28.31,29.02,66.89,51.42,99.78,57.52,64.43,11.94,82.58-43.11,94.53-107.54C246.38,83.85,218.52,13.69,154.09,1.75"></path><path class="cls-1" d="M77.65,94.41c-4.06,13.09-5.37,26.41-5.74,41.65,5.21-13.46,10-27.32,5.74-41.65"></path><path class="cls-1" d="M148.66,109.44c2.99-8.28,6.08-16.85,8.8-25.33,3.02-9.41,5.98-20.55,5.05-31.91-.13-1.62-.52-3.26-.9-4.86-.13-.55-.26-1.11-.38-1.66-.32,.6-.65,1.21-.99,1.81-.92,1.66-1.87,3.38-2.51,5.12-7.84,21.26-10.29,43.42-11.84,64.51,.91-2.56,1.84-5.12,2.76-7.68"></path><path class="cls-1" d="M459.5,125.11c-.81,.08-1.25-.19-1.51-.9-.21-.55-.46-1.28-.6-2.04-.78-4.08-.73-8.24,.14-12.37,.82-3.89,1.89-7.81,2.93-11.6,.52-1.89,1.03-3.78,1.52-5.67,.22-.85,.44-1.85,.4-2.83-.06-1.52-.94-2.63-2.42-3.04-1.42-.39-2.69,.05-3.66,1.3-.38,.49-.67,1.03-.96,1.56l-.2,.37c-1.27,2.31-2.53,4.61-3.79,6.92-2.83,5.19-5.76,10.55-8.75,15.76-2.01,3.51-4.32,6.94-6.55,10.26l-1.11,1.66c-.4,.59-.96,1.08-1.56,1.59-.22,.19-.45,.38-.66,.58l-.16-.05c-.07-.41-.14-.83-.22-1.24-.19-1.04-.39-2.12-.44-3.18-.24-4.82,.79-9.58,1.79-14.19l.23-1.06c.43-2.02,.97-4.69,1.22-7.39,.14-1.48-.76-2.81-2.34-3.49-1.44-.61-2.88-.26-4.05,.98-.96,1.03-1.72,1.99-2.31,2.93-2.16,3.44-4.31,6.9-6.45,10.35-3.42,5.49-6.95,11.17-10.48,16.71-2.8,4.39-5.84,8.73-8.78,12.93l-.59,.85c-.67,.96-1.62,1.77-2.62,2.6-.59,.49-1.02,.7-1.21,.64-.21-.06-.45-.44-.69-1.14-.36-1.02-.62-2.04-.77-3.04-.95-6.57,.52-13.03,1.93-19.28l.19-.85c.1-.45,.25-.89,.41-1.36,.04-.11,.07-.22,.11-.33,.77,.13,1.04,.35,1.13,1.16,.11,1.01,.92,2.05,1.65,2.56,1,.68,2.29,.5,3.46-.5,.96-.82,1.5-1.95,1.51-3.19,.01-1.38-.61-2.7-1.77-3.72-.91-.8-1.94-1.42-3.04-2.08-.42-.25-.86-.51-1.29-.79v-.07c.04-.33,.09-.77,.1-1.2,.02-1.92-1.02-3.44-2.66-3.88-1.51-.4-2.99,.34-3.96,1.97-.17,.28-.32,.58-.48,.88-.23,.45-.45,.87-.73,1.25-.25,.35-.66,.64-.92,.67-6.11,.61-11.36,3.53-16.5,9.21-4.79,5.29-8.18,11.63-10.36,19.37-.84,2.98-1.73,6.94-1.17,11.03,.31,2.25,1.05,4.96,4.05,5.95,.26,.09,.52,.15,.77,.2,2,.37,3.9-.44,5.79-2.46,1.74-1.87,3.09-3.57,4.13-5.21,2.24-3.55,4.44-7.21,6.56-10.76,.73-1.22,1.46-2.44,2.19-3.65,.59-.99,1.17-1.99,1.75-2.98l.1-.17c.01,.7-.01,1.38-.03,2.05-.01,.41-.03,.82-.03,1.23-.05,3.91,.18,8.05,2.17,11.89,1.06,2.05,2.63,3.41,4.52,3.93,1.87,.52,3.89,.17,5.82-1.02,1.56-.96,2.74-1.92,3.6-2.95l.49-.59c2.19-2.62,4.45-5.34,6.31-8.26,3.64-5.75,7.23-11.67,10.7-17.4,1.45-2.39,2.89-4.78,4.35-7.16-.02,.18-.04,.37-.07,.55-.18,1.44-.35,2.8-.45,4.17-.26,3.63-.29,7.49,1.3,11.14,.95,2.18,2.48,3.67,4.32,4.19,1.8,.52,3.75,.1,5.62-1.19,1.74-1.2,3.26-2.66,4.39-4.23,1.94-2.68,3.73-5.52,5.45-8.28l1.05-1.66c.84-1.33,1.63-2.7,2.47-4.16,.16-.28,.32-.55,.49-.84-.01,.28-.02,.56-.03,.84-.05,1.59-.1,3.09-.06,4.58,.09,3.27,.42,6.72,2.29,9.79,1.84,3.03,4.79,4.23,8.08,3.29,2.61-.75,3.79-2.08,3.5-3.95-.39-2.55-2.63-2.67-4.54-2.49m-72.46-6.22l-.44,.8c-5.58,10.14-10.86,19.73-17.36,29.04-1.37-9.04,8.86-26.17,17.81-29.85"></path><path class="cls-1" d="M569.22,60.26c3.31-1.46,3.06-3.46,2.62-4.52-.51-1.25-1.81-2.5-5.06-1.39-5.29,1.81-10.39,4.66-16.04,8.97-9.9,7.54-19.04,17.36-27.96,30-1.19,1.69-2.31,3.42-3.5,5.26-.27,.41-.53,.83-.81,1.25,0,0,0-.02,0-.03,.12-1.08,.24-2.1,.4-3.09,.47-2.84,.94-5.68,1.42-8.52,.71-4.25,1.43-8.49,2.11-12.75,.27-1.67,.4-3.41,.4-5.16,0-1.4-.84-2.54-2.24-3.03-1.38-.48-2.68-.14-3.76,1.01-.37,.39-.67,.82-.97,1.24-.13,.18-.26,.36-.39,.54-1.93,2.57-3.84,5.15-5.76,7.73-4.45,5.98-9.04,12.17-13.68,18.16-3.77,4.86-8.38,10.42-14.09,14.7-1.62,1.22-3.7,2.26-6.36,3.19-1.29,.45-2.2,.02-2.78-1.3,.69-.49,1.38-.96,2.07-1.42,1.69-1.13,3.28-2.2,4.69-3.52,5.58-5.21,10.11-11.78,13.49-19.53,1.3-2.99,1.73-5.38,1.39-7.76-.3-2.08-1.3-3.77-2.83-4.75-1.49-.96-3.38-1.17-5.32-.6-1.41,.41-2.53,.91-3.45,1.52-11.3,7.54-17.27,18.37-17.74,32.2-.1,3,.69,5.83,2.3,8.17,1.41,2.05,3.42,3.32,5.77,3.76,2,.37,4.24,.13,6.53-.77,5.26-2.07,9.28-5.93,12.64-9.38,7.55-7.78,14.13-16.57,20.49-25.07l1-1.33c.09-.13,.19-.25,.29-.38-.36,2.54-.72,5.09-1.09,7.63-.95,6.66-1.93,13.54-2.85,20.31-.37,2.72-.49,5.56-.59,8.07-.08,2,.9,3.44,2.64,3.86,1.77,.42,3.6-.49,4.44-2.22,.18-.37,.33-.76,.47-1.15l.14-.37c.46-1.2,.9-2.42,1.35-3.63,.94-2.59,1.92-5.28,3.1-7.8,4.03-8.58,9.82-15.92,15.47-22.58,10.56-12.44,20.74-20.54,32.04-25.51m-82.25,24.63c-3.41,7.86-7.83,14.21-13.51,19.42-.18,.17-.39,.31-.6,.46-.75-2.05-.05-3.89,.69-5.83l.27-.73c2.47-6.73,6.29-11.78,11.67-15.42,.51-.35,1.06-.62,1.65-.92,.2-.1,.4-.2,.6-.3l.09,.06c-.07,.3-.13,.6-.2,.9-.18,.84-.34,1.63-.66,2.36"></path><path class="cls-1" d="M525.37,126.31c-.81,.25-1.55,.72-2.16,1.15-3.23,2.27-6.11,5.32-8.81,9.32-4.04,6-7.17,12.36-9.73,18.03,.48-4.3,.95-8.59,1.44-12.89,.33-2.91-.56-4.85-2.5-5.47-2.3-.72-3.73,1.13-4.83,3.03-1.09,1.89-2.17,3.79-3.25,5.68-3.46,6.06-7.03,12.32-10.74,18.36-5.23,8.52-10.22,14.9-15.69,20.07-2.08,1.97-4.5,3.76-7.18,5.32-.77,.45-1.84,.9-2.54,.52-.56-.31-.89-1.16-.94-2.46-.09-2.31,.16-4.7,.39-7,.07-.7,.15-1.4,.21-2.09,.05-.14,.41-.43,.55-.44,4.62-.19,8.67-2.32,12.4-6.5,3.39-3.8,6.1-8.38,8.55-14.42,1.15-2.84,2.23-6.22,1.53-9.8-.42-2.13-1.54-3.76-3.17-4.59-1.54-.79-3.39-.76-5.21,.08-1.93,.89-3.88,2.26-5.82,4.06-4.49,4.18-7.42,9.34-9.69,13.85-.35,.7-.62,.96-1.38,1.01-.9,.05-2.01,.7-2.46,1.43-1.87,3.06-2.44,6.23-1.69,9.42,.19,.82,.2,1.79,.02,2.67-.82,4.02-1.84,9.02-.89,13.95,.62,3.24,2.12,5.59,4.33,6.8,.67,.37,1.4,.62,2.16,.76,1.77,.33,3.78,.06,5.92-.8,3.89-1.56,6.95-4.16,10.36-7.57,8.11-8.13,14.33-17.8,19.53-26.22,.98-1.59,1.93-3.2,2.95-4.92,.22-.37,.44-.75,.67-1.13-.04,.56-.08,1.12-.12,1.67-.17,2.33-.34,4.53-.4,6.73-.12,4.53-.15,9.12-.08,13.62,.03,1.71,1.07,2.93,2.79,3.27,1.56,.33,3.29-.47,4.05-1.86,.4-.75,.73-1.62,1-2.69,2.19-8.73,4.97-16.55,8.5-23.91,3.39-7.08,7.43-14.42,14.04-20.17l.09-.08c.46-.4,1.04-.9,1.13-1.5,.13-.86,.26-2.11-.16-3.08-.49-1.15-1.78-1.66-3.13-1.24m-64.28,44.16c3.32-8.22,6.99-16.03,14.2-21.6,.22,3.09-1.86,8.32-5.37,13.36-3.04,4.37-6.34,7.43-8.83,8.24"></path><path class="cls-1" d="M443.86,159.28c-.48-1.38-1.38-2.8-2.47-3.9-.53-.54-1.23-.82-2.04-.82-.99,0-2.02,.46-2.77,1.22-1.12,1.15-1.24,2.82-.29,4.25,.7,1.06,1.42,2.15,1.66,3.29,.52,2.47,1.07,5.34,1.17,8.17,.26,7.58-1.28,15.27-4.7,23.51-1.08,2.6-2.75,5.29-4.84,7.8-1.07,1.29-2.2,1.92-3.28,1.85-1.11-.08-2.18-.91-3.09-2.41-1.01-1.65-1.81-3.61-2.32-5.67-1.28-5.19-.79-10.47-.14-15.88l.08-.64c.16-1.28,.33-2.61,.29-3.92-.05-1.65-1.06-2.83-2.71-3.16-.02,0-.03,0-.04,0-1.47-.27-2.71,.33-3.58,1.74-.25,.41-.49,.86-.69,1.36-.46,1.1-.92,2.2-1.37,3.31-.83,2.02-1.69,4.11-2.59,6.14-.43,.96-.85,1.92-1.27,2.88-2.89,6.56-5.87,13.34-9.88,19.44-1.31,2-3.01,4.06-5.33,6.48-.8,.83-1.22,.95-1.43,.89-.22-.05-.57-.36-.96-1.56-.48-1.46-.83-3.07-1.04-4.78-.55-4.4-.27-9.17,.85-14.58,2.05-9.93,4.19-17.32,6.95-23.97,.25-.6,.76-1.19,1.25-1.44,1.13-.58,1.85-1.6,1.93-2.71,.08-1.08-.44-2.11-1.44-2.82-1.59-1.14-3.62-.96-4.94,.46-1,1.07-1.85,2.36-2.48,3.73-2.67,5.83-4.89,12.38-6.78,20.03-1.94,7.88-2.66,14.32-2.27,20.29,.23,3.49,.72,7.17,2.68,10.45,1.17,1.94,2.75,3.2,4.57,3.65,.11,.03,.23,.05,.34,.07,1.68,.31,3.47-.08,5.2-1.14,1.93-1.18,3.42-2.46,4.41-3.8,3.14-4.23,5.5-7.75,7.42-11.08,1.57-2.73,2.9-5.52,4.31-8.47,.46-.96,.92-1.93,1.39-2.89,0,.07,.02,.13,.03,.2,.54,3.81,1.6,8.7,5.03,12.71,3.9,4.56,9.5,5.14,14.26,1.47,2.22-1.71,4.08-4,5.71-7.01,4.2-7.77,6.59-16.64,7.3-27.12,.36-5.32-.34-10.57-2.07-15.6"></path><path class="cls-1" d="M594.72,166.4c-.8-.62-1.68-1.13-2.36-1.51-2.91-1.6-5.82-3.19-8.74-4.78-6.22-3.38-12.65-6.88-18.86-10.49-5.72-3.32-11.34-6.99-16.78-10.53-1.22-.79-2.44-1.59-3.66-2.38-.98-.63-1.41-1.06-1.46-1.42-.05-.36,.27-.84,1.09-1.63l2.25-2.18c4.41-4.28,8.97-8.7,13.61-12.91,2.44-2.21,5.08-4.32,7.64-6.36,1.12-.89,2.24-1.79,3.35-2.69,1.38-1.12,1.65-2.69,.71-4-.97-1.34-2.78-1.78-4.41-1.07-.68,.3-1.39,.73-2.09,1.28l-.22,.18c-1.84,1.45-3.75,2.95-5.54,4.51-3.52,3.06-7.01,6.13-10.57,9.28l-3.45,3.04c.1-.66,.2-1.28,.31-1.9,.29-1.63,.59-3.25,.88-4.88,.53-2.9,1.06-5.8,1.56-8.7,.75-4.36,1.48-8.71,2.2-13.07l1.42-7.23c.28-1.52-.62-3.06-2.12-3.42,0,0-.02,0-.03,0-1.64-.38-3.12,.32-3.71,1.77-.42,1.03-.74,2.1-.97,3.2-.77,3.72-1.45,7.19-2.08,10.59-.95,5.15-1.89,10.29-2.84,15.44-.91,4.98-1.82,9.96-2.75,14.94l-.08,.47c-.13,.77-.26,1.57-.64,2.18-.77,1.23-1.61,2.45-2.43,3.63-.82,1.18-1.66,2.4-2.43,3.63-.89,1.43-1.07,2.64-.53,3.59,.51,.9,1.62,1.49,3.31,1.79l-.4,2.23c-.35,1.97-.7,3.94-1.07,5.91-.67,3.58-1.35,7.16-2.02,10.74l-1.19,6.32c-.04,.23-.06,.47-.07,.71-.03,1.79,1.05,3.13,2.74,3.45,.01,0,.03,0,.04,0,1.89,.33,3.42-.65,3.81-2.44,.7-3.21,1.3-6.43,1.89-9.55,.48-2.58,.95-5.16,1.42-7.74,.38-2.12,.77-4.24,1.16-6.35,.26-1.41,.54-2.81,.83-4.27l.31-1.56,.6,.43c.72,.52,1.37,.98,2.03,1.43,11.73,8.04,25.06,15.82,41.95,24.47,1.99,1.02,3.78,1.84,5.46,2.5,1.47,.58,3.02,.13,3.77-1.09,.74-1.19,.41-2.59-.83-3.56"></path><path class="cls-1" d="M353.58,212.9c-1.51-3.8-1.69-7.83-1.86-11.74-.03-.71-.06-1.43-.1-2.14-.49-8.98-.78-17.07-.88-24.71-.11-8.2-.06-16.54,0-24.61l.03-6.12c0-.79,.2-1.63,.54-2.34,6-12.4,10.95-25.78,14.71-39.77,2.29-8.51,4.13-16.22,3.5-24.41-.19-2.49-.68-5.72-2.76-8.64-1.26-1.77-3.04-2.81-5.02-2.93-1.94-.12-3.86,.68-5.38,2.25-1.41,1.45-2.28,2.69-2.75,3.88l-.53,1.33c-1.43,3.61-2.91,7.35-3.84,11.13-4.44,17.99-5.52,36.19-6.03,53.18-.06,2.11-.3,4.35-1.58,6.44-.69,1.13-1.32,2.31-1.92,3.45-.49,.92-.98,1.85-1.51,2.76l-.61,1.04c-3.31,5.68-6.73,11.56-11.33,16.67-1.64,1.82-3.69,3.54-5.93,4.98-2.52,1.62-5.16,1.32-7.23-.82-1.24-1.28-2.74-2.98-3.41-4.83-1-2.78-1.81-5.68-2.59-8.48-.4-1.45-.8-2.9-1.23-4.34-.86-2.86-.52-5.79,1.05-9.2,1.76-3.82,3.16-7.75,4.4-11.42,2.7-7.94,4.7-14.6,3.9-21.9-.36-3.3-1.14-7.08-4.24-10.14-1.42-1.4-3.18-2.1-4.96-1.96-1.78,.14-3.36,1.11-4.46,2.72-.58,.85-1.12,1.69-1.33,2.59-.21,.93-.43,1.85-.65,2.78-.79,3.31-1.6,6.74-2.07,10.15-1.27,9.29-1.41,18.79-.41,29.05,.11,1.11-.06,2.21-.46,3l-1.26,2.51c-2,3.99-4.07,8.12-6.45,12.01-2.44,3.97-5.16,7.9-7.79,11.7-1.15,1.66-2.3,3.32-3.43,4.98-.08,.11-.15,.2-.23,.29-2.58,4.25,1.38,6.49,4.07,5.35,.55-.47,1.05-.95,1.48-1.43,6.87-7.83,12-16.22,16.11-23.4,.11-.19,.22-.38,.34-.58,.06,.21,.12,.42,.18,.62,.3,1.04,.59,2.03,.92,2.99,1.33,3.88,3.05,7.94,6.6,11.3,4.88,4.62,11.6,5.37,17.52,1.96,2.44-1.41,4.42-2.93,5.89-4.54,2.87-3.14,5.42-6.54,7.54-9.45,1.33-1.82,2.52-3.75,3.67-5.61,.34-.56,.69-1.11,1.03-1.67,.07,3.5,.13,7,.19,10.49,.14,8.55,.29,17.4,.56,26.1,.15,4.84,.62,9.74,1.08,14.49l.23,2.35c.19,1.99,.67,4.23,2.84,5.8,.83,.6,1.69,.91,2.54,.91,.62,0,1.24-.16,1.84-.49,1.5-.82,2.04-2.11,1.46-3.56m-50.41-73.01c.24-11.21,1.09-21.01,3.71-30.64,2.76,10.54-.34,20.74-3.71,30.64m47.88-13.93c1-15.52,2.58-31.82,7.66-47.46,.41-1.28,1.03-2.54,1.62-3.76,.22-.44,.43-.88,.64-1.33,.08,.41,.16,.82,.25,1.22,.24,1.17,.49,2.39,.58,3.58,.6,8.36-1.32,16.56-3.27,23.48-1.76,6.24-3.76,12.54-5.69,18.63-.6,1.88-1.2,3.77-1.79,5.65"></path><path class="cls-1" d="M447.6,54.74c-.22,.19-.06,.55,.22,.53,1.38-.14,2.76-.31,4.14-.31,1.69,0,3.41,.09,5.05,.45,2.86,.63,3.87,3.14,2.46,5.77-1.46,2.72-3.8,4.51-6.38,6.01-2.09,1.22-4.27,2.25-6.77,2.22-3.32-.04-5.12-2.92-3.7-5.95,.66-1.41,1.71-2.53,3-3.38,.74-.49,1.55-.42,2.07,.14,.52,.57,.54,1.37,0,2.1-.56,.74-1.21,1.42-1.74,2.18-.22,.31-.38,.81-.28,1.15,.06,.19,.66,.29,1.03,.31,.41,.02,.84-.06,1.23-.18,3.1-.99,5.81-2.64,7.92-5.19h0c.64-.79,.19-1.98-.8-2.11h-.03c-2.94-.37-5.84,.13-8.75,.49-.85,.11-1.72,.21-2.57,.15-1.82-.13-2.81-2.17-1.76-3.71,.26-.37,.57-.73,.9-1.04,2.93-2.78,6.11-5.23,9.55-7.34,.54-.33,1.16-.61,1.77-.71,1.15-.18,1.98,.65,1.82,1.82-.08,.6-.31,1.21-.61,1.74-.31,.56-.92,.84-1.52,.6-.64-.26-1.04-.03-1.5,.33-1.34,1.07-3.66,2.97-4.77,3.94"></path><path class="cls-1" d="M440.24,69.14c-.55-.82-1.4-.85-2.66-.08-1.79,1.08-2.22,.88-2.53-1.18-.33-2.2-.01-4.35,.41-6.5,.28-1.39,.65-2.76,.84-4.17,.19-1.39-.69-2.25-2.07-2.23-.21,0-.44-.05-.63-.14-1.2-.59-2.43-.57-3.54,.07-1.11,.64-2.21,1.36-3.13,2.25-3.1,3.01-5.24,6.71-6.89,10.69-.77,1.87-1.31,3.84-1.81,5.81-.27,1.05,.11,2.06,1.11,2.62,.98,.55,1.94,.26,2.72-.42,.8-.7,1.57-1.46,2.22-2.31,1.44-1.88,2.79-3.84,4.16-5.77,1-1.4,1.98-2.8,2.97-4.2,.07,.02,.14,.04,.21,.06-.03,.65-.08,1.29-.09,1.94-.03,1.74,.09,3.46,.8,5.07,.97,2.19,2.86,3.04,5.09,2.22,.69-.26,1.36-.67,1.95-1.13,1.13-.88,1.39-1.8,.86-2.61m-8.22-10.58l-8.78,11.51c-.32,.42-.96,.04-.76-.45,1.91-4.9,4.46-8.51,7.99-11.3,.39-.31,.88-.48,1.37-.47,.28,.12,.37,.47,.18,.71"></path><path class="cls-1" d="M406.25,67.75c-3.01,5.36-5.86,10.44-9.43,15.41-1.04-4.59,4.52-13.68,9.67-15.83l-.24,.43Zm11.65-22.85c-.47-.81-1.29-1.29-2.44-1.35-1.09-.06-1.83,.36-2.25,1.08-.28,.48-.51,.99-.65,1.5-.95,3.73-1.97,7.46-2.79,11.21-.42,1.9-.79,3.8-1.16,5.71-.11,.09-.22,.15-.31,.17-3.57,.49-6.57,2.15-9.45,5.22-2.68,2.86-4.5,6.21-5.58,10.24-.41,1.55-.83,3.61-.4,5.69,.24,1.14,.74,2.51,2.53,2.93,.16,.04,.31,.06,.46,.08,1.18,.13,2.28-.34,3.34-1.44,.97-1.01,1.72-1.92,2.29-2.79,1.23-1.89,2.42-3.83,3.57-5.71,.4-.65,.79-1.29,1.19-1.94,.32-.52,.64-1.05,.95-1.58l.05-.09c.02,.36,.03,.71,.04,1.05,0,.21,0,.42,.01,.63,.07,2,.31,4.12,1.58,6.03,.68,1.02,1.63,1.67,2.76,1.88,1.11,.21,2.29-.03,3.39-.69,0,0,.02-.01,.03-.02,1.29-.78,2.06-2.06,2.17-3.42,.03-.39,.06-.77,.07-1.04,.06-1.08-1.55-1.5-2.22-.58,0,.01-.02,.03-.03,.04l-.33,.45c-.37,.51-.91,.96-1.47,1.41-.33,.27-.58,.39-.7,.37-.13-.02-.27-.21-.44-.56-.24-.51-.42-1.03-.53-1.53-.73-3.34-.04-6.7,.63-9.94l.09-.44c.05-.24,.12-.47,.2-.71,.02-.06,.04-.12,.06-.17,.45,.04,.62,.15,.69,.56,.09,.51,.59,1.02,1.04,1.26,.6,.32,1.36,.19,2.02-.36,.54-.45,.83-1.05,.8-1.68-.03-.71-.43-1.36-1.14-1.85-.55-.39-1.18-.67-1.84-.98-.26-.12-.52-.24-.78-.36v-.04c.01-.11,.02-.25,.02-.39,1.15-4.96,2.31-9.93,3.47-14.89,.08-.32,.31-.66,.6-.9,.72-.61,.86-1.29,.41-2.05"></path></svg> 