<?xml version="1.0" encoding="utf-8"?>
<!-- Generator: Adobe Illustrator 15.0.0, SVG Export Plug-In . SVG Version: 6.00 Build 0)  -->
<!DOCTYPE svg PUBLIC "-//W3C//DTD SVG 1.1//EN" "http://www.w3.org/Graphics/SVG/1.1/DTD/svg11.dtd">
<svg version="1.1" id="Ebene_1" xmlns="http://www.w3.org/2000/svg" xmlns:xlink="http://www.w3.org/1999/xlink" x="0px" y="0px"
	 width="647px" height="97px" viewBox="0 0 647 97" enable-background="new 0 0 647 97" xml:space="preserve">
<g>
	<g>
		<path fill="#C50347" d="M1.215,51.75V25.749h17.214v4.178H6.185v6.193h8.895v4.178H6.185v7.273h12.64v4.179H1.215z"/>
		<path fill="#C50347" d="M22.491,51.75V33.022h4.105v2.018c1.656-1.152,3.564-2.377,5.762-2.377c3.745,0,5.546,2.449,5.546,6.266
			V51.75h-4.466V39.577c0-2.52-0.792-3.313-2.305-3.313c-1.944,0-3.421,1.115-4.177,1.98V51.75H22.491z"/>
		<path fill="#C50347" d="M57.92,51.75h-3.781l-0.217-2.017c-1.584,1.547-3.061,2.376-5.077,2.376c-4.97,0-7.49-4.394-7.49-10.228
			c0-4.609,2.665-9.219,7.49-9.219c1.513,0,3.637,0.9,4.537,2.09h0.072v-9.004h4.466V51.75z M53.454,37.849
			c-0.9-0.828-2.017-1.584-3.457-1.584c-2.665,0-4.177,2.16-4.177,6.121s1.512,6.123,4.177,6.123c1.908,0,2.521-0.938,3.457-1.658
			V37.849z"/>
		<path fill="#C50347" d="M65.547,43.106c0.072,3.889,1.801,5.402,3.89,5.402s3.061-0.938,4.177-2.232l3.241,2.016
			c-1.729,2.664-4.249,3.817-7.851,3.817c-4.861,0-7.922-3.782-7.922-9.724s3.061-9.723,8.139-9.723
			c4.897-0.035,7.634,4.105,7.634,8.607v1.836H65.547z M72.75,40.081c-0.072-2.592-1.441-4.105-3.602-4.105
			s-3.529,1.514-3.602,4.105H72.75z"/>
		<path fill="#C50347" d="M80.234,51.75V33.022h4.105v3.205h0.072c1.08-2.232,2.592-3.492,5.257-3.564v4.717
			c-0.216-0.035-0.468-0.035-0.792-0.035c-2.232,0-4.178,2.557-4.178,3.025v11.38H80.234z"/>
		<path fill="#C50347" d="M90.565,33.022h4.249l2.557,11.668h0.072l2.701-11.668h4.141l2.593,11.668h0.072l2.665-11.668h4.249
			l-4.825,18.728h-4.033l-2.773-11.669h-0.072L99.424,51.75h-4.033L90.565,33.022z"/>
		<path fill="#C50347" d="M119.547,43.106c0.071,3.889,1.8,5.402,3.889,5.402s3.061-0.938,4.178-2.232l3.24,2.016
			c-1.729,2.664-4.249,3.817-7.85,3.817c-4.862,0-7.923-3.782-7.923-9.724s3.061-9.723,8.139-9.723
			c4.897-0.035,7.634,4.105,7.634,8.607v1.836H119.547z M126.748,40.081c-0.071-2.592-1.439-4.105-3.601-4.105
			s-3.529,1.514-3.601,4.105H126.748z"/>
		<path fill="#C50347" d="M134.989,29.565V25.39h4.466v4.176H134.989z M139.455,51.75h-4.466V33.022h4.466V51.75z"/>
		<path fill="#C50347" d="M145.25,33.022v-6.193h4.465v6.193h3.673v3.602h-3.673v10.588c0,1.008,0.504,1.297,1.62,1.297
			c0.685,0,1.405-0.217,2.053-0.361v3.673c-1.224,0.145-2.305,0.289-3.528,0.289c-3.313,0-4.609-1.657-4.609-4.321V36.624h-2.594
			v-3.602H145.25z"/>
		<path fill="#C50347" d="M163.899,33.022h2.233v8.248h8.246v2.232h-8.246v8.247h-2.233v-8.247h-8.246v-2.232h8.246V33.022z"/>
		<path fill="#C50347" d="M178.262,51.75V25.749h9.506c5.617,0,9.184,2.342,9.184,7.742c0,5.402-3.566,7.742-9.184,7.742h-4.537
			V51.75H178.262z M183.23,37.2h3.961c3.746,0,4.789-1.404,4.789-3.709s-1.043-3.709-4.789-3.709h-3.961V37.2z"/>
		<path fill="#C50347" d="M209.656,51.75l-0.289-1.622c-1.799,1.224-3.492,1.981-5.832,1.981c-3.387,0-5.078-2.413-5.078-4.97
			c0-4.25,3.457-6.482,10.73-7.346V38.21c0-1.441-1.152-2.234-2.736-2.234c-2.088,0-3.24,1.117-4.105,2.305l-2.881-2.195
			c1.152-1.98,4.25-3.494,6.986-3.422c5.041,0.107,7.203,1.945,7.203,7.563v8.822c0,0.938,0.07,1.873,0.359,2.702H209.656z
			 M209.188,42.782c-2.988,0.576-6.266,1.189-6.266,3.816c0,1.404,0.9,2.197,2.16,2.197c1.404,0,3.17-1.188,4.105-1.98V42.782z"/>
		<path fill="#C50347" d="M217.826,51.75V33.022h4.104v3.205h0.072c1.08-2.232,2.594-3.492,5.258-3.564v4.717
			c-0.215-0.035-0.469-0.035-0.793-0.035c-2.232,0-4.176,2.557-4.176,3.025v11.38H217.826z"/>
		<path fill="#C50347" d="M230.822,33.022v-6.193h4.465v6.193h3.674v3.602h-3.674v10.588c0,1.008,0.504,1.297,1.621,1.297
			c0.684,0,1.404-0.217,2.053-0.361v3.673c-1.225,0.145-2.305,0.289-3.529,0.289c-3.313,0-4.609-1.657-4.609-4.321V36.624h-2.594
			v-3.602H230.822z"/>
		<path fill="#C50347" d="M242.09,51.75V33.022h4.105v2.018c1.656-1.152,3.564-2.377,5.762-2.377c3.744,0,5.545,2.449,5.545,6.266
			V51.75h-4.465V39.577c0-2.52-0.793-3.313-2.305-3.313c-1.945,0-3.422,1.115-4.178,1.98V51.75H242.09z"/>
		<path fill="#C50347" d="M265.131,43.106c0.072,3.889,1.801,5.402,3.889,5.402s3.061-0.938,4.178-2.232l3.24,2.016
			c-1.729,2.664-4.248,3.817-7.85,3.817c-4.861,0-7.922-3.782-7.922-9.724s3.061-9.723,8.137-9.723
			c4.898-0.035,7.635,4.105,7.635,8.607v1.836H265.131z M272.332,40.081c-0.072-2.592-1.439-4.105-3.6-4.105
			c-2.162,0-3.529,1.514-3.602,4.105H272.332z"/>
		<path fill="#C50347" d="M279.818,51.75V33.022h4.104v3.205h0.072c1.08-2.232,2.594-3.492,5.258-3.564v4.717
			c-0.215-0.035-0.469-0.035-0.793-0.035c-2.232,0-4.176,2.557-4.176,3.025v11.38H279.818z"/>
		<path fill="#C50347" d="M321.906,39.253V51.75h-2.377v-2.378h-0.072c-1.332,1.836-3.926,2.737-6.807,2.737
			c-5.904,0-10.154-4.249-10.154-13.36s4.25-13.359,10.154-13.359c4.395,0,7.779,2.088,9.363,7.633l-2.736,0.541
			c-1.297-4.141-3.457-5.725-6.482-5.725c-3.816,0-7.418,2.592-7.418,10.91s3.602,10.912,7.418,10.912c4.25,0,6.23-2.594,6.23-5.762
			v-2.197h-5.871v-2.449H321.906z"/>
		<path fill="#C50347" d="M327.732,51.75V33.022h2.592v2.486l0.145-0.145c1.584-1.764,3.637-2.701,5.438-2.701
			c2.412,0,4.105,1.225,4.789,2.953c1.658-1.764,3.746-2.953,5.943-2.953c2.484,0,5.148,1.045,5.148,5.689V51.75h-2.592V38.353
			c0-2.52-1.262-3.457-2.918-3.457c-2.305,0-3.816,1.514-5.221,2.881V51.75h-2.594V38.353c0-2.52-1.26-3.457-2.916-3.457
			c-2.305,0-3.818,1.514-5.223,2.881V51.75H327.732z"/>
		<path fill="#C50347" d="M360.529,25.749v9.074l0.145-0.07c1.439-1.189,3.168-2.09,4.934-2.09c3.168,0,7.525,2.449,7.525,9.723
			c0,7.49-4.357,9.724-7.67,9.724c-2.232,0-3.889-0.937-5.402-2.341l-0.467,1.981h-1.801c0.215-1.37,0.143-2.737,0.143-4.106V25.749
			H360.529z M360.529,47.356c1.836,1.799,3.061,2.52,4.717,2.52c3.242,0,5.295-2.592,5.295-7.346c0-5.654-2.27-7.635-5.295-7.635
			c-1.549,0-3.313,1.045-4.717,2.594V47.356z"/>
		<path fill="#C50347" d="M396.895,25.749V51.75h-2.881V39.362h-12.461V51.75h-2.881V25.749h2.881v11.164h12.461V25.749H396.895z"/>
	</g>
	<g>
		<rect x="438.223" fill="#B7B5BF" width="51.629" height="51.629"/>
		<polygon fill="#C40347" points="477.223,25.403 477.223,12.531 463.77,12.531 463.77,37.981 451.848,37.981 451.848,25.329 
			438.223,25.329 438.223,51.629 489.852,51.629 489.852,25.403 		"/>
	</g>
	<g>
		<rect x="516.566" fill="#B7B4BF" width="51.629" height="51.629"/>
		<polygon fill="#C40347" points="542.57,25.255 542.57,12.492 516.566,12.492 516.566,51.629 555.258,51.629 555.258,25.255 		"/>
	</g>
	<g>
		<rect x="594.375" fill="#B7B4BF" width="51.625" height="51.629"/>
		<polygon fill="#C40347" points="620.184,12.621 620.184,0 606.742,0 606.742,13.387 619.422,13.387 619.422,25.31 606.645,25.31 
			606.645,51.629 646,51.629 646,12.621 		"/>
	</g>
	<g>
		<path fill="#1A171B" d="M1.062,77.871h1.583v7.676H12v-7.676h1.583v17.318H12v-8.348H2.645v8.348H1.062V77.871z"/>
		<path fill="#1A171B" d="M33.432,86.529c0,5.109-2.495,8.9-6.837,8.9s-6.836-3.791-6.836-8.9c0-5.107,2.494-8.898,6.836-8.898
			S33.432,81.422,33.432,86.529z M31.849,86.529c0-4.869-2.063-7.604-5.254-7.604c-3.189,0-5.253,2.734-5.253,7.604
			c0,4.871,2.063,7.605,5.253,7.605C29.785,94.135,31.849,91.4,31.849,86.529z"/>
		<path fill="#1A171B" d="M49.129,82.957c-0.743-2.543-2.135-4.031-4.222-4.031c-3.43,0-4.941,3.359-4.941,7.604
			c0,4.246,1.512,7.605,5.109,7.605c2.782,0,3.79-1.967,4.365-4.223l1.487,0.264c-0.647,3.094-2.255,5.254-5.877,5.254
			c-4.197,0-6.668-3.551-6.668-8.9c0-5.348,2.471-8.898,6.668-8.898c3.095,0,4.798,2.184,5.541,5.014L49.129,82.957z"/>
		<path fill="#1A171B" d="M56.909,77.871h1.583v7.676h9.355v-7.676h1.583v17.318h-1.583v-8.348h-9.355v8.348h-1.583V77.871z"/>
		<path fill="#1A171B" d="M76.854,77.871h4.846c4.27,0,6.141,1.344,6.141,4.342c0,1.871-0.72,2.949-2.446,3.742
			c1.895,0.84,3.142,2.303,3.142,4.484c0,3.6-2.423,4.75-6.164,4.75h-5.518V77.871z M78.437,85.547h3.767
			c2.038,0,4.054-0.672,4.054-3.215s-1.583-3.166-4.701-3.166h-3.119V85.547z M78.437,93.895h4.103c3.046,0,4.413-1.104,4.413-3.551
			c0-1.99-1.439-3.502-4.917-3.502h-3.599V93.895z"/>
		<path fill="#1A171B" d="M99.22,77.871h2.423l5.469,17.318h-1.679l-1.751-5.66h-6.549l-1.775,5.66h-1.679L99.22,77.871z
			 M103.321,88.232l-2.878-9.066h-0.048l-2.854,9.066H103.321z"/>
		<path fill="#1A171B" d="M114.341,77.871v11.801c0,3.311,1.607,4.463,4.678,4.463s4.678-1.152,4.678-4.463V77.871h1.583v11.658
			c0,3.934-2.063,5.9-6.261,5.9s-6.261-1.967-6.261-5.9V77.871H114.341z"/>
		<path fill="#1A171B" d="M144.124,88.953c0,0.672-0.575,1.199-1.199,1.199c-0.623,0-1.199-0.527-1.199-1.199
			s0.576-1.199,1.199-1.199C143.549,87.754,144.124,88.281,144.124,88.953z"/>
		<path fill="#1A171B" d="M160.397,90.344c0.672,2.639,2.207,3.791,4.941,3.791c2.159,0,3.454-1.367,3.454-3.455
			c0-4.652-9.379-2.83-9.379-8.563c0-2.566,1.775-4.486,4.989-4.486c2.734,0,4.75,1.488,5.541,4.15l-1.367,0.408
			c-0.623-1.92-1.967-3.264-4.174-3.264c-2.015,0-3.406,1.152-3.406,3.191c0,1.176,0.336,2.014,3.526,3.213
			c4.869,1.824,5.853,3.023,5.853,5.518c0,2.951-2.471,4.582-5.276,4.582c-3.311,0-5.206-1.463-6.165-4.629L160.397,90.344z"/>
		<path fill="#1A171B" d="M174.87,77.871h11.85v1.295h-5.133v16.023h-1.583V79.166h-5.134V77.871z"/>
		<path fill="#1A171B" d="M196.227,77.871h2.423l5.469,17.318h-1.679l-1.751-5.66h-6.549l-1.775,5.66h-1.679L196.227,77.871z
			 M200.328,88.232l-2.878-9.066h-0.048l-2.854,9.066H200.328z M196.274,74.633v2.254h-1.583v-2.254H196.274z M200.017,74.633v2.254
			h-1.583v-2.254H200.017z"/>
		<path fill="#1A171B" d="M209.765,77.871h4.894c5.373,0,7.532,4.029,7.532,8.658c0,4.631-2.159,8.66-7.532,8.66h-4.894V77.871z
			 M211.348,93.895h3.358c3.838,0,5.9-2.688,5.9-7.365c0-4.676-2.063-7.363-5.9-7.363h-3.358V93.895z"/>
		<path fill="#1A171B" d="M226.733,77.871h11.85v1.295h-5.133v16.023h-1.583V79.166h-5.134V77.871z"/>
		<path fill="#1A171B" d="M244.349,95.189V77.871h9.883v1.295h-8.3v6.381h5.973v1.295h-5.973v7.053h8.756v1.295H244.349z"/>
		<path fill="#1A171B" d="M260.309,77.871h4.846c4.27,0,6.141,1.344,6.141,4.342c0,1.871-0.72,2.949-2.446,3.742
			c1.895,0.84,3.142,2.303,3.142,4.484c0,3.6-2.423,4.75-6.164,4.75h-5.518V77.871z M261.892,85.547h3.767
			c2.038,0,4.054-0.672,4.054-3.215s-1.583-3.166-4.701-3.166h-3.119V85.547z M261.892,93.895h4.103
			c3.046,0,4.413-1.104,4.413-3.551c0-1.99-1.439-3.502-4.917-3.502h-3.599V93.895z"/>
		<path fill="#1A171B" d="M282.674,77.871h2.423l5.469,17.318h-1.679l-1.751-5.66h-6.549l-1.775,5.66h-1.679L282.674,77.871z
			 M286.775,88.232l-2.878-9.066h-0.048l-2.854,9.066H286.775z"/>
		<path fill="#1A171B" d="M297.795,77.871v11.801c0,3.311,1.607,4.463,4.678,4.463s4.678-1.152,4.678-4.463V77.871h1.583v11.658
			c0,3.934-2.063,5.9-6.261,5.9c-4.197,0-6.261-1.967-6.261-5.9V77.871H297.795z"/>
		<path fill="#1A171B" d="M327.578,88.953c0,0.672-0.574,1.199-1.199,1.199c-0.621,0-1.199-0.527-1.199-1.199
			s0.578-1.199,1.199-1.199C327.004,87.754,327.578,88.281,327.578,88.953z"/>
		<path fill="#1A171B" d="M344.02,95.189V77.871h5.23c4.125,0,5.852,1.918,5.852,4.82s-1.727,4.822-5.852,4.822h-3.648v7.676H344.02
			z M345.602,86.219h3.648c2.996,0,4.27-1.248,4.27-3.527c0-2.277-1.273-3.525-4.27-3.525h-3.648V86.219z"/>
		<path fill="#1A171B" d="M373.125,95.189h-1.727l-4.029-7.916h-4.486v7.916h-1.582V77.871h5.852c3.406,0,5.324,1.871,5.324,4.701
			c0,2.279-1.125,3.791-3.598,4.414L373.125,95.189z M362.883,85.979h4.27c2.305,0,3.742-1.271,3.742-3.406
			s-1.246-3.406-3.742-3.406h-4.27V85.979z"/>
		<path fill="#1A171B" d="M392.35,86.529c0,5.109-2.494,8.9-6.838,8.9c-4.34,0-6.836-3.791-6.836-8.9
			c0-5.107,2.496-8.898,6.836-8.898C389.855,77.631,392.35,81.422,392.35,86.529z M390.766,86.529c0-4.869-2.063-7.604-5.254-7.604
			c-3.188,0-5.252,2.734-5.252,7.604c0,4.871,2.064,7.605,5.252,7.605C388.703,94.135,390.766,91.4,390.766,86.529z"/>
		<path fill="#1A171B" d="M397.422,92.383c0.695,1.199,1.223,1.752,2.734,1.752c1.535,0,2.324-0.936,2.324-3.07V77.871h1.586v13.672
			c0,2.592-1.586,3.887-4.008,3.887c-2.086,0-3.021-0.744-3.91-2.303L397.422,92.383z"/>
		<path fill="#1A171B" d="M411.818,95.189V77.871h9.883v1.295h-8.299v6.381h5.973v1.295h-5.973v7.053h8.754v1.295H411.818z"/>
		<path fill="#1A171B" d="M427.777,77.871h1.584v9.402l7.916-9.402h1.943l-5.588,6.621l6.258,10.697h-1.773l-5.492-9.547
			l-3.264,3.766v5.781h-1.584V77.871z"/>
		<path fill="#1A171B" d="M443.402,77.871h11.852v1.295h-5.133v16.023h-1.584V79.166h-5.135V77.871z"/>
		<path fill="#1A171B" d="M461.02,95.189V77.871h9.883v1.295h-8.301v6.381h5.973v1.295h-5.973v7.053h8.756v1.295H461.02z"/>
		<path fill="#1A171B" d="M476.977,77.871h2.664l8.227,14.439h0.049V77.871h1.584v17.318h-1.633l-9.258-16.023h-0.049v16.023h-1.584
			V77.871z"/>
		<path fill="#1A171B" d="M495.266,77.871h11.852v1.295h-5.137v16.023h-1.582V79.166h-5.133V77.871z"/>
		<path fill="#1A171B" d="M510.867,77.871h1.605l3.695,14.439h0.047l3.457-14.439h1.582l3.383,14.439h0.047l3.766-14.439h1.605
			l-4.629,17.318h-1.582l-3.383-14.248h-0.047l-3.383,14.248h-1.582L510.867,77.871z"/>
		<path fill="#1A171B" d="M535.633,77.871h1.582v17.318h-1.582V77.871z"/>
		<path fill="#1A171B" d="M554.273,82.957c-0.742-2.543-2.133-4.031-4.219-4.031c-3.43,0-4.941,3.359-4.941,7.604
			c0,4.246,1.512,7.605,5.109,7.605c2.781,0,3.789-1.967,4.363-4.223l1.488,0.264c-0.648,3.094-2.254,5.254-5.875,5.254
			c-4.199,0-6.672-3.551-6.672-8.9c0-5.348,2.473-8.898,6.672-8.898c3.094,0,4.797,2.184,5.539,5.014L554.273,82.957z"/>
		<path fill="#1A171B" d="M562.059,77.871h1.582v9.402l7.914-9.402h1.945l-5.59,6.621l6.262,10.697h-1.777l-5.492-9.547
			l-3.262,3.766v5.781h-1.582V77.871z"/>
		<path fill="#1A171B" d="M579.336,77.871h1.586v16.023h7.723v1.295h-9.309V77.871z"/>
		<path fill="#1A171B" d="M595.535,77.871v11.801c0,3.311,1.609,4.463,4.68,4.463s4.676-1.152,4.676-4.463V77.871h1.582v11.658
			c0,3.934-2.063,5.9-6.258,5.9c-4.199,0-6.262-1.967-6.262-5.9V77.871H595.535z"/>
		<path fill="#1A171B" d="M613.898,77.871h2.66l8.23,14.439h0.047V77.871h1.582v17.318h-1.629l-9.262-16.023h-0.047v16.023h-1.582
			V77.871z"/>
		<path fill="#1A171B" d="M643.676,82.908c-0.527-2.207-1.895-3.982-4.461-3.982c-3.047,0-5.039,2.928-5.039,7.604
			c0,3.719,1.082,7.605,5.543,7.605c2.445,0,4.055-1.871,4.055-4.174v-1.584h-4.367v-1.295h5.949v8.107h-1.367v-1.703h-0.047
			c-1.035,1.344-2.305,1.943-4.703,1.943c-3.863,0-6.645-3.166-6.645-8.9c0-5.732,3-8.898,6.715-8.898
			c3.215,0,5.254,2.063,5.855,5.014L643.676,82.908z"/>
	</g>
</g>
</svg>
