<svg xmlns="http://www.w3.org/2000/svg" viewBox="0 0 124.02 59.02"><g data-name="Ebene 2"><g data-name="Ebene 1"><path d="M124 55.66V10c-6.8-.64-20.6-2.43-21.71-2.58C62.83 1.72 55 8.79 61.1 13.11c6.65 4.65-14.52 5.39-51.6 5.54H0v37z" fill-rule="evenodd" fill="#0080c4"/><path d="M17.06 43.07V23h9.33v14.72h12.67v5.35zm44.58-7.8h8.79a7.71 7.71 0 01-4 6.15c-2.43 1.44-5.74 2.18-9.88 2.18-4.66 0-8.31-1-11-2.82a9 9 0 01-4-7.73 9 9 0 014-7.73c2.6-1.86 6.2-2.82 10.77-2.82 4.18 0 7.46.7 9.89 2.12a7.6 7.6 0 014 6h-8.9A3.31 3.31 0 0060 28.29a6.59 6.59 0 00-3.5-.8 5.63 5.63 0 00-4.08 1.37A5.87 5.87 0 0051 33.05a5.6 5.6 0 001.43 4.13 5.88 5.88 0 004.3 1.44 6.12 6.12 0 003.44-.9 3.29 3.29 0 001.48-2.45zm21.14 7.8h-8.43V23h11.36l4 10c.06.15.17.47.33.94s.37 1.18.69 2c.16-.7.31-1.28.47-1.76a10.58 10.58 0 01.43-1.16l4.13-10H107v20h-8.42l.11-9.87v-3.48c-.31 1-.74 2.15-1.16 3.38l-.06.21-3.61 9.81h-6.41l-3.6-9.6a9.77 9.77 0 01-.54-1.47c-.15-.59-.42-1.33-.68-2.32.05.88.11 1.63.11 2.21v1.49z" fill="#ffd400" fill-rule="evenodd"/><path d="M100.36 52.29v-.58h.08a1.27 1.27 0 00.74-.27 1 1 0 00.53-.63l.63.11a1.64 1.64 0 01-.74 1 1.81 1.81 0 01-1.22.37zm0-2.39v-.53h1.3a1.52 1.52 0 00-.32-1 1.16 1.16 0 00-.9-.38h-.08v-.58a1.84 1.84 0 011.49.64 2.58 2.58 0 01.58 1.75v.1zm3 2.29v-4.67h.64v.85a1.81 1.81 0 01.63-.75 1.68 1.68 0 01.85-.21 1.38 1.38 0 011.12.48 1.91 1.91 0 01.37 1.33v3h-.64v-3a1.28 1.28 0 00-.26-.85.78.78 0 00-.7-.33 1.28 1.28 0 00-.94.43 1.81 1.81 0 00-.38 1.17v2.6zm-3-4.78V48a1.29 1.29 0 00-.88.38 1.74 1.74 0 00-.42 1h1.3v.53h-1.3a2 2 0 00.37 1.33 1.23 1.23 0 00.93.48v.58a1.73 1.73 0 01-1.45-.69 2.32 2.32 0 01-.59-1.75 2.53 2.53 0 01.59-1.75 1.73 1.73 0 011.45-.69zm-24.83 4.83v-.55a1.54 1.54 0 00.79-.46 1.76 1.76 0 00.43-1.16v-.27h-.54a3.56 3.56 0 00-.68.05v-.54a6.3 6.3 0 01.79-.05h.43V49a.91.91 0 00-.33-.79 1.21 1.21 0 00-.85-.26v-.53h.15a1.86 1.86 0 011.33.43 2.05 2.05 0 01.37 1.38v2c0 .21.05.37.05.53a1.44 1.44 0 00.11.43h-.7c0-.17 0-.27-.09-.43v-.47a2 2 0 01-1.22 1zM78.12 51l.64-.15a1.3 1.3 0 00.48.68 1.45 1.45 0 00.84.22 1 1 0 00.74-.22.63.63 0 00.32-.57c0-.33-.37-.59-1.11-.75a.43.43 0 00-.26-.06 2.72 2.72 0 01-1.12-.52.93.93 0 01-.32-.79 1.41 1.41 0 01.43-1 1.87 1.87 0 011.24-.43 1.71 1.71 0 011.06.32 1.26 1.26 0 01.58.85l-.63.16a1 1 0 00-.37-.59 1.32 1.32 0 00-.7-.16 1.48 1.48 0 00-.68.16.72.72 0 00-.22.59c0 .32.32.52 1 .69.16 0 .32 0 .37.1a2.22 2.22 0 011.11.48 1.09 1.09 0 01.32.85 1.22 1.22 0 01-.47 1 1.92 1.92 0 01-1.28.43 1.89 1.89 0 01-1.27-.37 1.64 1.64 0 01-.69-1zm7.31-1.79a1.32 1.32 0 00-.37-.85.92.92 0 00-.74-.33 1.1 1.1 0 00-.9.48 2.66 2.66 0 00-.31 1.38 2.36 2.36 0 00.31 1.33 1 1 0 00.9.53 1 1 0 00.74-.33 1.56 1.56 0 00.37-.84l.64.16a2 2 0 01-.58 1.16 1.73 1.73 0 01-1.17.43 1.58 1.58 0 01-1.43-.69 2.56 2.56 0 01-.53-1.75 2.79 2.79 0 01.53-1.8 1.94 1.94 0 011.54-.64 1.66 1.66 0 011.11.43 2.12 2.12 0 01.53 1.22l-.64.11zm1.55 3v-6.28h.68v2.44a2.21 2.21 0 01.59-.75 1.6 1.6 0 01.85-.21 1.29 1.29 0 011.11.48 1.9 1.9 0 01.42 1.33v3H90v-3a1.18 1.18 0 00-.28-.85A.76.76 0 0089 48a1.34 1.34 0 00-1 .43 1.86 1.86 0 00-.37 1.17v2.6zm4.87 0v-4.69h.69v4.67zm0-5.57v-.69h.69v.69zm2 5.57v-4.69h.63v.85a1.76 1.76 0 01.64-.75 1.6 1.6 0 01.85-.21 1.39 1.39 0 011.11.48 1.91 1.91 0 01.37 1.33v3h-.64v-3a1.18 1.18 0 00-.27-.85.82.82 0 00-.68-.33 1.17 1.17 0 00-1 .43 1.86 1.86 0 00-.37 1.17v2.6zm-18.32-4.79V48a1.92 1.92 0 00-.81.2 1 1 0 00-.37.65l-.68-.11a1.45 1.45 0 01.68-1 2.3 2.3 0 011.18-.31zm0 1.89v.54a2.23 2.23 0 00-.75.22.81.81 0 00-.48.79.68.68 0 00.27.58 1 1 0 00.69.27h.27v.55a1.65 1.65 0 01-.38 0 1.75 1.75 0 01-1.15-.4 1.34 1.34 0 01-.42-1 1.24 1.24 0 01.7-1.17 3.54 3.54 0 011.27-.38zm-16.88 3v-.58a1.3 1.3 0 00.8-.27 1.16 1.16 0 00.48-.63l.69.11a1.87 1.87 0 01-.75 1 2 2 0 01-1.24.37zm0-2.39v-.53H60a1.54 1.54 0 00-.37-1 1.1 1.1 0 00-.91-.38v-.58a1.94 1.94 0 011.51.64 2.56 2.56 0 01.53 1.75v.1zm2.94 2.29v-4.69h.63v.85a3.1 3.1 0 01.63-.75 1.65 1.65 0 01.85-.21 1.42 1.42 0 011.17.48 2.2 2.2 0 01.37 1.33v3h-.69v-3a1.3 1.3 0 00-.21-.85 1 1 0 00-.74-.37 1.3 1.3 0 00-1 .43 1.8 1.8 0 00-.37 1.17v2.6zm8.21-3.77a3 3 0 01.63-.74 1.59 1.59 0 01.8-.27 1.19 1.19 0 011.06.48 2 2 0 01.37 1.33v3H72v-3a1.33 1.33 0 00-.21-.85.75.75 0 00-.64-.33 1 1 0 00-.84.48 1.68 1.68 0 00-.37 1.12v2.6h-.7v-3a1.33 1.33 0 00-.21-.85.75.75 0 00-.64-.33 1.11 1.11 0 00-.9.48 2.08 2.08 0 00-.37 1.12v2.6h-.63v-4.76h.63v.85a1.86 1.86 0 01.59-.69 1.42 1.42 0 01.79-.27 1.59 1.59 0 01.85.27 1.73 1.73 0 01.45.74zm-11.15-1V48a1.11 1.11 0 00-.88.38 1.74 1.74 0 00-.42 1h1.3v.53h-1.36a2.31 2.31 0 00.38 1.33 1.25 1.25 0 001 .48v.58a1.8 1.8 0 01-1.48-.69 2.89 2.89 0 010-3.5 1.8 1.8 0 011.48-.69zm-4.87 4.86v-.62a1.14 1.14 0 00.85-.43 1.71 1.71 0 00.37-1.08v-.69a1.6 1.6 0 00-.32-1.06 1.15 1.15 0 00-.87-.43v-.57a2.23 2.23 0 01.6.2 1.73 1.73 0 01.59.64v-2.33h.68v6.26H55v-1a2.27 2.27 0 01-.59.79 1.45 1.45 0 01-.63.29zm0-4.85V48a1 1 0 00-.85.53 2.85 2.85 0 000 2.66 1 1 0 00.88.47v.62h-.19a1.58 1.58 0 01-1.28-.69 2.91 2.91 0 01-.47-1.75 3.18 3.18 0 01.47-1.75 1.59 1.59 0 011.33-.69zm-4.7 4.82v-.55a1.57 1.57 0 00.8-.46 1.75 1.75 0 00.42-1.16v-.3h-.59a4.17 4.17 0 00-.63 0v-.53a6.47 6.47 0 01.8-.05h.42V49a1 1 0 00-.31-.79 1.27 1.27 0 00-.85-.26h-.06v-.53h.16a1.94 1.94 0 011.32.43 2 2 0 01.37 1.38v2c0 .21.06.37.06.53a1.19 1.19 0 00.11.43h-.69a1.44 1.44 0 01-.11-.43v-.47a1.87 1.87 0 01-.69.73 1.65 1.65 0 01-.53.22zm0-4.82V48a1.82 1.82 0 00-.79.2.87.87 0 00-.38.65l-.69-.11a1.55 1.55 0 01.65-1 2.54 2.54 0 011.21-.31zm0 1.89v.53a2.66 2.66 0 00-.75.23.81.81 0 00-.46.79.65.65 0 00.26.58.91.91 0 00.68.27h.27v.55a1.57 1.57 0 01-.37 0 1.77 1.77 0 01-1.17-.43 1.15 1.15 0 01-.42-1 1.23 1.23 0 01.69-1.17 3.6 3.6 0 011.27-.38zm-6.66 3v-.58a1.27 1.27 0 001-.48 2.56 2.56 0 00.37-1.38 2.46 2.46 0 00-.37-1.38 1.27 1.27 0 00-1-.48v-.58a2 2 0 011.52.64 2.81 2.81 0 01.58 1.8 2.58 2.58 0 01-.58 1.75 1.85 1.85 0 01-1.52.69zm3-.1v-6.31h.7v6.26zm-3-4.78V48a1.19 1.19 0 00-.95.48 2.46 2.46 0 00-.37 1.38 2.56 2.56 0 00.37 1.38 1.19 1.19 0 00.95.48v.58a1.8 1.8 0 01-1.48-.69 2.58 2.58 0 01-.59-1.75 2.82 2.82 0 01.59-1.8 1.9 1.9 0 011.48-.64zm-9 4.88v-.58a1.21 1.21 0 001-.48 2.65 2.65 0 00.36-1.38 2.55 2.55 0 00-.36-1.38 1.21 1.21 0 00-1-.48v-.58a1.92 1.92 0 011.49.64 2.81 2.81 0 01.58 1.8 2.58 2.58 0 01-.58 1.75 1.81 1.81 0 01-1.49.69zm3-.1v-6.31h.69v4l2.07-2.38H40l-1.43 1.54 1.65 3.13h-.75l-1.37-2.66-1 1v1.65zm-19.73-1.8l.74-.11a1.61 1.61 0 00.64 1 2.14 2.14 0 001.17.37 1.52 1.52 0 001-.32.89.89 0 00.42-.8.74.74 0 00-.26-.69 2.9 2.9 0 00-1.27-.53.36.36 0 00-.26-.06 3.58 3.58 0 01-1.44-.68.78.78 0 01-.31-.43 1.08 1.08 0 01-.11-.58 1.49 1.49 0 01.59-1.28 2 2 0 011.47-.52 2.39 2.39 0 011.44.43 2 2 0 01.85 1.16l-.74.16a1.28 1.28 0 00-.53-.8 1.72 1.72 0 00-1-.32 1.49 1.49 0 00-.95.32.93.93 0 00-.37.75.73.73 0 00.11.37 1.23 1.23 0 00.26.31 4.17 4.17 0 001.06.37c.17.06.21.06.32.11a3.28 3.28 0 011.54.74 1.38 1.38 0 01.47 1.12 1.53 1.53 0 01-.63 1.27 2.37 2.37 0 01-1.64.53 2.7 2.7 0 01-1.64-.48 2.55 2.55 0 01-.91-1.37zm16.75-3V48a1.2 1.2 0 00-1 .48 2.47 2.47 0 00-.32 1.38 2.56 2.56 0 00.32 1.38 1.2 1.2 0 001 .48v.58a1.85 1.85 0 01-1.54-.69 2.63 2.63 0 01-.58-1.75 2.87 2.87 0 01.58-1.8 2 2 0 011.54-.64zm-8.16 1.76a1.37 1.37 0 00-.37-.85.91.91 0 00-.69-.33 1.22 1.22 0 00-1 .48 2.66 2.66 0 00-.22 1.35 2.36 2.36 0 00.31 1.33 1 1 0 00.9.53.94.94 0 00.75-.33 1.75 1.75 0 00.43-.84l.57.16a1.74 1.74 0 01-.57 1.16 1.78 1.78 0 01-1.18.43 1.7 1.7 0 01-1.42-.69 2.51 2.51 0 01-.53-1.75 2.55 2.55 0 01.57-1.8 1.85 1.85 0 011.49-.64 1.66 1.66 0 011.11.43 2.06 2.06 0 01.53 1.22l-.63.11zm1.54 3v-6.27h.68v2.44a1.83 1.83 0 01.64-.75 1.35 1.35 0 01.8-.21 1.38 1.38 0 011.16.48 2.13 2.13 0 01.37 1.33v3h-.69v-3a1 1 0 00-.26-.85.78.78 0 00-.69-.33 1.3 1.3 0 00-.95.43 1.81 1.81 0 00-.38 1.17v2.6z" fill="#fff" fill-rule="evenodd"/><path d="M15.31 15.37c24.25-.66 39.4-2.77 33.13-6.77-7-4.44 2.28-13 47.05-5.82 3.88.61 7.32 1.16 10.38 1.66C55.66-1.49 47.94 6 54.05 10.33c6.49 4.54-11.49 5.82-38.74 5.04z" fill="#949393" fill-rule="evenodd"/><path fill="#949393" d="M0 57.34h124.02v1.67H0z"/></g></g></svg>