<?xml version="1.0" encoding="UTF-8"?>
<svg xmlns="http://www.w3.org/2000/svg" id="Ebene_2" viewBox="0 0 202.97 33.93">
  <defs>
    <style>.cls-1{fill:#c0c4c6;}.cls-2{fill:#cd113e;}</style>
  </defs>
  <g id="Ebene_1-2">
    <path class="cls-1" d="m199.49,9.96c-1.65,0-2.99-1.34-2.99-2.99s1.34-2.99,2.99-2.99,2.99,1.34,2.99,2.99-1.34,2.99-2.99,2.99Zm0,.54c1.93,0,3.49-1.59,3.48-3.52,0-1.93-1.59-3.49-3.52-3.48-1.93,0-3.48,1.57-3.48,3.5,0,1.93,1.55,3.49,3.48,3.5.01,0,.03,0,.04,0Zm.51-3.37c.68,0,1.2-.29,1.2-1.05s-.68-1.02-1.36-1.02h-1.65v3.84h.54v-1.8h.65l1.15,1.8h.65l-1.16-1.77Zm-1.28-.54v-.99h1.02c.41,0,.93.07.93.47,0,.6-.84.52-1.31.52h-.65Z"></path>
    <path class="cls-1" d="m41.64,4.36h10.42c5.62,0,9.51,2.6,9.51,8.61s-3.33,8.88-9.27,8.88h-3.83v8.66h-6.83V4.36Zm6.83,12.01h1.14c2.47,0,4.89,0,4.89-3.2s-2.26-3.33-4.89-3.33h-1.14v6.52Z"></path>
    <path class="cls-1" d="m92.2,16.96c0,8.47-6.07,14.43-14.47,14.43s-14.47-5.98-14.47-14.43c0-7.92,6.94-13.47,14.47-13.47s14.47,5.55,14.47,13.47Zm-21.86,0c0,4.51,3.33,7.81,7.4,7.81s7.39-3.3,7.39-7.81c0-3.59-3.33-6.9-7.39-6.9s-7.4,3.33-7.4,6.93v-.03Z"></path>
    <path class="cls-1" d="m102.17,24.77h8.16v5.74h-14.96V4.36h6.8v20.41Z"></path>
    <path class="cls-1" d="m121.08,30.52h-6.79V4.36h6.8v26.15Z"></path>
    <path class="cls-1" d="m127.26,4.36h10.41c5.62,0,9.51,2.6,9.51,8.61s-3.33,8.88-9.26,8.88h-3.88v8.66h-6.78V4.36Zm6.78,12.01h1.2c2.47,0,4.89,0,4.89-3.2s-2.26-3.33-4.89-3.33h-1.2v6.52Z"></path>
    <path class="cls-1" d="m177.82,16.96c0,8.47-6.09,14.43-14.47,14.43s-14.47-5.98-14.47-14.43c0-7.92,6.93-13.47,14.47-13.47s14.47,5.55,14.47,13.47Zm-21.86,0c0,4.51,3.33,7.81,7.39,7.81s7.4-3.3,7.4-7.81c0-3.59-3.33-6.9-7.4-6.9s-7.39,3.33-7.39,6.93v-.03Z"></path>
    <path class="cls-1" d="m187.78,24.77h8.16v5.74h-14.96V4.36h6.8v20.41Z"></path>
    <path class="cls-2" d="m16.97,0C7.6,0,0,7.59,0,16.96c0,9.37,7.59,16.97,16.96,16.97,9.37,0,16.97-7.59,16.97-16.96,0,0,0,0,0,0C33.93,7.6,26.34,0,16.97,0Z"></path>
  </g>
</svg>
