<?xml version="1.0" encoding="UTF-8"?><svg id="Layer_1" xmlns="http://www.w3.org/2000/svg" viewBox="0 0 64 64"><defs><style>.cls-1{fill:none;stroke:#fff;stroke-linecap:round;stroke-linejoin:round;}</style></defs><rect class="cls-1" x="46.3" y="54.4" width="8.7" height="7.9"/><line class="cls-1" x1="50.7" y1="54.4" x2="50.7" y2="13.7"/><line class="cls-1" x1="58.5" y1="62.2" x2="55" y2="62.2"/><path class="cls-1" d="M63.1,13.7h-24.8c0-6.9,5.6-12.4,12.4-12.4s6.5,1.4,8.8,3.6c2.2,2.2,3.6,5.3,3.6,8.8Z"/><line class="cls-1" x1="46.3" y1="62.2" x2="42.9" y2="62.2"/><polygon class="cls-1" points="42.7 31.3 42.7 54.1 .9 54.1 .9 31.3 9.3 31.3 9.3 47 34.3 47 34.3 31.3 42.7 31.3"/><rect class="cls-1" x="9.3" y="38.5" width="25" height="8.5"/><path class="cls-1" d="M37.8,24.2v7.1h-3.5v7.2H9.3v-7.2h-3.5v-7.1c0-6.2,5-11.2,11.2-11.2h9.6c6.2,0,11.2,5,11.2,11.2Z"/><path class="cls-1" d="M13.6,54.1l-2.7,6.9c-.6,1.4-2.1,2.1-3.5,1.5h-.3c-1.4-.7-2.1-2.3-1.5-3.7l1.9-4.7h6.2Z"/><path class="cls-1" d="M36.1,62.4h-.3c-1.4.7-3,0-3.5-1.4l-2.7-6.9h6.2l1.9,4.7c.6,1.4-.1,3-1.5,3.5Z"/></svg>