<?xml version="1.0" encoding="UTF-8"?><svg id="Layer_1" xmlns="http://www.w3.org/2000/svg" viewBox="0 0 64 64"><defs><style>.cls-1{fill:none;stroke:#fff;stroke-linecap:round;stroke-linejoin:round;}</style></defs><path class="cls-1" d="M22.4,23.5v22.3h20.1v-22.3h-20.1Z"/><rect class="cls-1" x="22.4" y="23.5" width="20.1" height="22.3"/><rect class="cls-1" x="4.8" y="23.5" width="17.6" height="22.3"/><path class="cls-1" d="M1.3,19.8v29.5h61.4v-29.5H1.3ZM59.7,45.8H4.8v-22.3h54.8v22.3Z"/><rect class="cls-1" x="42.5" y="23.5" width="17.2" height="22.3"/><rect class="cls-1" x="22.4" y="23.5" width="20.1" height="11.3"/><path class="cls-1" d="M12.8,49.3l-2.7,9.2c-.3,1-1.2,1.7-2.3,1.7s-2.6-1.4-2.3-2.8l1.6-8.1h5.7Z"/><path class="cls-1" d="M56.4,60.2c-1.1,0-2-.7-2.3-1.7l-2.7-9.2h5.7l1.6,8.1c.3,1.5-.8,2.8-2.3,2.8Z"/><rect class="cls-1" x="10.8" y="3.8" width="10.8" height="6.8"/><path class="cls-1" d="M21,18c0,.6-.1,1.2-.4,1.7h-8.5c-.2-.5-.4-1.1-.4-1.7,0-2,1.2-3.7,3-4.3v-3.1h3.2v3.1c1.8.6,3.1,2.3,3.1,4.3Z"/><rect class="cls-1" x="25.1" y="11.1" width="5.9" height="8.6"/></svg>