<?xml version="1.0" encoding="UTF-8"?><svg id="Layer_1" xmlns="http://www.w3.org/2000/svg" viewBox="0 0 64 64"><defs><style>.cls-1{fill:none;stroke:#fff;stroke-linecap:round;stroke-linejoin:round;}</style></defs><rect class="cls-1" x="3.7" y="26.1" width="56.7" height="4.5"/><rect class="cls-1" x="6.4" y="30.7" width="51.2" height="26.4"/><path class="cls-1" d="M20.3,8.4h.9c3.3,0,6,2.7,6,6v.4h-12.9v-.4c0-3.3,2.7-6,6-6Z"/><path class="cls-1" d="M17.2,14.8h7.1v.2c0,1.8-1.5,3.3-3.3,3.3h-.5c-1.8,0-3.3-1.5-3.3-3.3v-.2h0Z"/><line class="cls-1" x1="20.7" y1="1.1" x2="20.7" y2="8.4"/><path class="cls-1" d="M42.9,8.4h.9c3.3,0,6,2.7,6,6v.4h-12.9v-.4c0-3.3,2.7-6,6-6Z"/><path class="cls-1" d="M39.8,14.8h7.1v.2c0,1.8-1.5,3.3-3.3,3.3h-.5c-1.8,0-3.3-1.5-3.3-3.3v-.2h0Z"/><line class="cls-1" x1="43.4" y1="1.1" x2="43.4" y2="8.4"/><rect class="cls-1" x="12.7" y="38.3" width="12.5" height="4.1"/><line class="cls-1" x1="10.3" y1="62.9" x2="14.1" y2="42.6"/><line class="cls-1" x1="27.6" y1="62.9" x2="23.8" y2="42.6"/><line class="cls-1" x1="12.6" y1="52.4" x2="25" y2="52.4"/><rect class="cls-1" x="38.8" y="38.3" width="12.5" height="4.1"/><line class="cls-1" x1="36.4" y1="62.9" x2="40.2" y2="42.6"/><line class="cls-1" x1="53.7" y1="62.9" x2="49.9" y2="42.6"/><line class="cls-1" x1="38.7" y1="52.4" x2="51.1" y2="52.4"/></svg>