<?xml version="1.0" encoding="UTF-8"?><svg id="Layer_1" xmlns="http://www.w3.org/2000/svg" viewBox="0 0 64 64"><defs><style>.cls-1{fill:none;stroke:#fff;stroke-linecap:round;stroke-linejoin:round;}</style></defs><path class="cls-1" d="M63,26.9v1c0,1.7-1.3,3-3,3H23.2c-1.6,0-3-1.3-3-3v-1h42.8Z"/><polygon class="cls-1" points="52.5 31 57.2 31 55.3 36.2 54.4 36.2 52.5 31"/><path class="cls-1" d="M43.8,51.7v1c0,1.7-1.4,3-3,3H4c-1.7,0-3-1.3-3-3v-1h42.8Z"/><rect class="cls-1" x="4" y="36.5" width="4.1" height="15.1"/><rect class="cls-1" x="12" y="33.8" width="3.7" height="17.9"/><rect class="cls-1" x="21.2" y="47.5" width="18.9" height="4.1"/><rect class="cls-1" x="27.9" y="44.1" width="12.2" height="3.4"/><polygon class="cls-1" points="28.6 36.2 27.6 36.2 25.7 31 30.4 31 28.6 36.2"/><polygon class="cls-1" points="9.1 61 8.2 61 6.3 55.8 11 55.8 9.1 61"/><polygon class="cls-1" points="35.9 61 34.9 61 33.1 55.8 37.8 55.8 35.9 61"/><rect class="cls-1" x="45" y="17.6" width="9.3" height="9.3"/><path class="cls-1" d="M34.9,26.8h-6.3c-1-3.7-.8-6.4-.4-8.2.5-2.1,1.4-3.8,1.2-6.6-.1-1.5-.5-2.8-.8-3.6h6.3c-.4.9-.8,2.2-.9,3.8,0,2.8,1.1,4.3,1.7,6.7.4,1.8.6,4.4-.8,7.9Z"/><path class="cls-1" d="M49,16.3c0,.5-.1,1-.3,1.4h-1.2c-1.6-.9-3.1-2.6-4.1-4.8-1.1-2.6-1.1-5.3-.3-7.3,1.6.6,3.1,1.9,4.3,3.7.3.5.6,1,.8,1.6.6,1.3.8,2.6.9,3.8,0,.6,0,1.1,0,1.6Z"/><path class="cls-1" d="M52.5,9.7c-.9.7-1.7,1.6-2.4,2.8-.4.7-.8,1.4-1,2.2,0-1.2-.3-2.5-.9-3.8-.2-.6-.5-1.1-.8-1.6.5-2.8,2-5.1,3.8-6.3,1.2,1.7,1.7,4.1,1.4,6.7Z"/><path class="cls-1" d="M54.5,15.2c-.6.9-1.3,1.8-2,2.4h-3.7c.1-.4.2-.9.3-1.4,0-.5.1-1,0-1.6.2-.7.6-1.5,1-2.2.7-1.1,1.5-2,2.4-2.8,1.1-.9,2.2-1.4,3.4-1.7.5,2.1,0,4.8-1.4,7.2Z"/><rect class="cls-1" x="8.1" y="40.7" width="3.9" height="11"/></svg>